<?xml version="1.0" encoding="utf-8"?><svg xmlns="http://www.w3.org/2000/svg" xmlns:xlink="http://www.w3.org/1999/xlink"><symbol viewBox="0 0 30 30" id="icon-basket" xmlns="http://www.w3.org/2000/svg"><path d="M11.036 4.362a1.42 1.42 0 011.277-.79h5.374c.54 0 1.036.303 1.277.79l.322.638h4.285C24.361 5 25 5.638 25 6.43c0 .79-.638 1.428-1.429 1.428H6.43a1.427 1.427 0 110-2.857h4.285l.322-.638zM6.429 9.286H23.57v14.286a2.86 2.86 0 01-2.857 2.857H9.286a2.86 2.86 0 01-2.857-2.857V9.286zm4.285 2.857a.716.716 0 00-.714.714v10c0 .393.321.715.714.715a.716.716 0 00.715-.715v-10a.716.716 0 00-.715-.714zm4.286 0a.716.716 0 00-.714.714v10c0 .393.321.715.714.715a.716.716 0 00.714-.715v-10a.716.716 0 00-.714-.714zm4.286 0a.716.716 0 00-.715.714v10c0 .393.322.715.715.715a.716.716 0 00.714-.715v-10a.716.716 0 00-.714-.714z"/></symbol><symbol viewBox="0 0 30 30" id="icon-card" xmlns="http://www.w3.org/2000/svg"><path d="M4 8.889a2.444 2.444 0 012.444-2.445h17.112A2.445 2.445 0 0126 8.89v12.22a2.447 2.447 0 01-2.444 2.444H6.444A2.445 2.445 0 014 21.111V8.889zm6.111 6.11a1.22 1.22 0 00-1.222-1.221A1.22 1.22 0 007.667 15a1.22 1.22 0 001.222 1.222A1.22 1.22 0 0010.11 15zm0-3.666a1.22 1.22 0 00-1.222-1.222 1.22 1.22 0 00-1.222 1.222 1.22 1.22 0 001.222 1.222 1.22 1.22 0 001.222-1.222zm0 7.334a1.22 1.22 0 00-1.222-1.223 1.22 1.22 0 00-1.222 1.223 1.22 1.22 0 001.222 1.222 1.22 1.22 0 001.222-1.222zm2.445-8.25a.914.914 0 00-.917.916c0 .508.409.917.917.917h8.555a.915.915 0 00.917-.917.914.914 0 00-.917-.916h-8.555zm0 3.666a.915.915 0 00-.917.917c0 .508.409.917.917.917h8.555a.915.915 0 00.917-.917.915.915 0 00-.917-.917h-8.555zm0 3.667a.915.915 0 00-.917.917c0 .507.409.916.917.916h8.555a.914.914 0 00.917-.916.915.915 0 00-.917-.917h-8.555z"/></symbol><symbol viewBox="0 0 30 30" id="icon-edit" xmlns="http://www.w3.org/2000/svg"><path d="M21.49 13.593l-.442.442-.884.884-8.017 8.017c-.258.258-.578.45-.93.551l-5.014 1.474a.927.927 0 01-.926-.238.936.936 0 01-.239-.927l1.474-5.01a2.18 2.18 0 01.552-.93l8.016-8.017.884-.884.442-.441 1.326 1.325 2.428 2.429 1.326 1.325h.004zM8.753 18.818l-.364.363a.324.324 0 00-.078.133l-.99 3.363 3.364-.989a.324.324 0 00.133-.078l.364-.364H9.379a.628.628 0 01-.626-.625v-1.803zM22.725 5.733l1.541 1.541a2.502 2.502 0 010 3.539l-.567.567-.884.884-.442.442-1.325-1.326-2.429-2.428-1.33-1.326.443-.442.884-.884.567-.567a2.502 2.502 0 013.538 0h.004z"/></symbol><symbol viewBox="0 0 30 30" id="icon-exit" xmlns="http://www.w3.org/2000/svg"><g clip-path="url(#dclip0_122_43)"><path d="M16.222 6.445a1.21 1.21 0 00-.47-.963 1.232 1.232 0 00-1.05-.221L7.831 6.979a1.83 1.83 0 00-1.387 1.776v13.579H5.222A1.22 1.22 0 004 23.556a1.22 1.22 0 001.222 1.222h11V6.445zM13.778 15c0 .676-.409 1.222-.917 1.222s-.917-.546-.917-1.222c0-.676.41-1.222.917-1.222.508 0 .917.546.917 1.222zm3.666-4.889h3.667v14.667h3.667A1.22 1.22 0 0026 23.556a1.22 1.22 0 00-1.222-1.223h-1.222V10.112a2.447 2.447 0 00-2.445-2.444h-3.667v2.444z"/></g><defs><clipPath id="dclip0_122_43"><path transform="translate(4 5.222)" d="M0 0h22v19.556H0z"/></clipPath></defs></symbol><symbol viewBox="0 0 30 30" id="icon-hospital" xmlns="http://www.w3.org/2000/svg"><path d="M24.167 6.444H5.833A1.834 1.834 0 004 8.278v.61h22v-.61a1.834 1.834 0 00-1.833-1.834zM4 21.722c0 1.012.82 1.834 1.833 1.834h18.334A1.834 1.834 0 0026 21.722v-11.61H4v11.61zm14.056-9.166h4.888c.337 0 .612.275.612.61a.613.613 0 01-.612.612h-4.888a.613.613 0 01-.612-.611c0-.336.275-.611.612-.611zm0 2.444h4.888c.337 0 .612.275.612.611a.613.613 0 01-.612.611h-4.888a.613.613 0 01-.612-.61c0-.337.275-.612.612-.612zm0 2.445h4.888a.611.611 0 110 1.222h-4.888a.611.611 0 110-1.223zm-7.334-4.89a2.444 2.444 0 110 4.89 2.444 2.444 0 010-4.89zm-2.444 6.112h4.889c1.012 0 1.833.82 1.833 1.833a.611.611 0 01-.611.611H7.056a.612.612 0 01-.612-.611c0-1.012.821-1.833 1.834-1.833z"/></symbol><symbol viewBox="0 0 30 30" id="icon-list" xmlns="http://www.w3.org/2000/svg"><path d="M10.536 5.984c.42.38.455 1.033.073 1.456l-3.092 3.44a.884.884 0 01-.74.3c-.283.047-.556-.064-.756-.3L4.302 9.16c-.403-.365-.403-1.018 0-1.42a1.031 1.031 0 011.458 0l.95.948L9.08 6.06a1.031 1.031 0 011.457-.076zm0 6.876c.42.378.455 1.032.073 1.457l-3.092 3.437a.884.884 0 01-.74.301c-.283.047-.556-.064-.756-.3l-1.719-1.72c-.403-.364-.403-1.018 0-1.422.403-.4 1.056-.4 1.458 0l.95.95 2.369-2.63a1.032 1.032 0 011.457-.073zm3.089-4.391c0-.76.614-1.375 1.375-1.375h9.625a1.374 1.374 0 110 2.75H15c-.76 0-1.375-.615-1.375-1.375zm0 6.875c0-.76.614-1.375 1.375-1.375h9.625c.76 0 1.375.614 1.375 1.375 0 .76-.614 1.375-1.375 1.375H15c-.76 0-1.375-.615-1.375-1.375zm-2.75 6.875c0-.76.614-1.375 1.375-1.375h12.375c.76 0 1.375.614 1.375 1.375 0 .76-.614 1.375-1.375 1.375H12.25c-.76 0-1.375-.615-1.375-1.375zm-6.875 0a2.063 2.063 0 114.125 0 2.063 2.063 0 01-4.125 0z"/></symbol><symbol viewBox="0 0 30 30" id="icon-map" xmlns="http://www.w3.org/2000/svg"><path d="M13.979 25.506c-2.249-2.766-7.25-9.47-7.25-13.235a8.271 8.271 0 1116.542 0c0 3.766-5.04 10.469-7.25 13.235a1.302 1.302 0 01-2.042 0zm1.02-10.478a2.76 2.76 0 002.758-2.757A2.76 2.76 0 0015 9.514a2.76 2.76 0 00-2.757 2.757A2.76 2.76 0 0015 15.028z"/></symbol><symbol viewBox="0 0 30 30" id="icon-user" xmlns="http://www.w3.org/2000/svg"><path d="M15 15a5 5 0 100-10 5 5 0 000 10zm1.98 1.876h-3.96a6.77 6.77 0 00-6.77 6.77c0 .747.606 1.354 1.354 1.354h14.793a1.351 1.351 0 001.354-1.354 6.77 6.77 0 00-6.77-6.77z"/></symbol></svg>