<?xml version="1.0" encoding="utf-8"?><svg xmlns="http://www.w3.org/2000/svg" xmlns:xlink="http://www.w3.org/1999/xlink"><symbol viewBox="0 0 30 30" id="icon-card" xmlns="http://www.w3.org/2000/svg"><path d="M4 8.889a2.444 2.444 0 012.444-2.445h17.112A2.445 2.445 0 0126 8.89v12.22a2.447 2.447 0 01-2.444 2.444H6.444A2.445 2.445 0 014 21.111V8.889zm6.111 6.11a1.22 1.22 0 00-1.222-1.221A1.22 1.22 0 007.667 15a1.22 1.22 0 001.222 1.222A1.22 1.22 0 0010.11 15zm0-3.666a1.22 1.22 0 00-1.222-1.222 1.22 1.22 0 00-1.222 1.222 1.22 1.22 0 001.222 1.222 1.22 1.22 0 001.222-1.222zm0 7.334a1.22 1.22 0 00-1.222-1.223 1.22 1.22 0 00-1.222 1.223 1.22 1.22 0 001.222 1.222 1.22 1.22 0 001.222-1.222zm2.445-8.25a.914.914 0 00-.917.916c0 .508.409.917.917.917h8.555a.915.915 0 00.917-.917.914.914 0 00-.917-.916h-8.555zm0 3.666a.915.915 0 00-.917.917c0 .508.409.917.917.917h8.555a.915.915 0 00.917-.917.915.915 0 00-.917-.917h-8.555zm0 3.667a.915.915 0 00-.917.917c0 .507.409.916.917.916h8.555a.914.914 0 00.917-.916.915.915 0 00-.917-.917h-8.555z"/></symbol><symbol viewBox="0 0 30 30" id="icon-list" xmlns="http://www.w3.org/2000/svg"><path d="M10.536 5.984c.42.38.455 1.033.073 1.456l-3.092 3.44a.884.884 0 01-.74.3c-.283.047-.556-.064-.756-.3L4.302 9.16c-.403-.365-.403-1.018 0-1.42a1.031 1.031 0 011.458 0l.95.948L9.08 6.06a1.031 1.031 0 011.457-.076zm0 6.876c.42.378.455 1.032.073 1.457l-3.092 3.437a.884.884 0 01-.74.301c-.283.047-.556-.064-.756-.3l-1.719-1.72c-.403-.364-.403-1.018 0-1.422.403-.4 1.056-.4 1.458 0l.95.95 2.369-2.63a1.032 1.032 0 011.457-.073zm3.089-4.391c0-.76.614-1.375 1.375-1.375h9.625a1.374 1.374 0 110 2.75H15c-.76 0-1.375-.615-1.375-1.375zm0 6.875c0-.76.614-1.375 1.375-1.375h9.625c.76 0 1.375.614 1.375 1.375 0 .76-.614 1.375-1.375 1.375H15c-.76 0-1.375-.615-1.375-1.375zm-2.75 6.875c0-.76.614-1.375 1.375-1.375h12.375c.76 0 1.375.614 1.375 1.375 0 .76-.614 1.375-1.375 1.375H12.25c-.76 0-1.375-.615-1.375-1.375zm-6.875 0a2.063 2.063 0 114.125 0 2.063 2.063 0 01-4.125 0z"/></symbol><symbol viewBox="0 0 30 30" id="icon-user" xmlns="http://www.w3.org/2000/svg"><path d="M15 15a5 5 0 100-10 5 5 0 000 10zm1.98 1.876h-3.96a6.77 6.77 0 00-6.77 6.77c0 .747.606 1.354 1.354 1.354h14.793a1.351 1.351 0 001.354-1.354 6.77 6.77 0 00-6.77-6.77z"/></symbol></svg>