<svg width="30" height="30" viewBox="0 0 30 30" fill="none" xmlns="http://www.w3.org/2000/svg">
<path d="M24.1667 6.44446H5.83333C4.8208 6.44446 4 7.26526 4 8.27779V8.8889H26V8.27779C26 7.26526 25.1788 6.44446 24.1667 6.44446ZM4 21.7222C4 22.7344 4.8208 23.5556 5.83333 23.5556H24.1667C25.1792 23.5556 26 22.7348 26 21.7222V10.1111H4V21.7222ZM18.0556 12.5556H22.9444C23.2806 12.5556 23.5556 12.8306 23.5556 13.1667C23.5556 13.5028 23.2806 13.7778 22.9444 13.7778H18.0556C17.7194 13.7778 17.4444 13.5028 17.4444 13.1667C17.4444 12.8306 17.7194 12.5556 18.0556 12.5556ZM18.0556 15H22.9444C23.2806 15 23.5556 15.275 23.5556 15.6111C23.5556 15.9472 23.2806 16.2222 22.9444 16.2222H18.0556C17.7194 16.2222 17.4444 15.9472 17.4444 15.6111C17.4444 15.275 17.7194 15 18.0556 15ZM18.0556 17.4445H22.9444C23.2819 17.4445 23.5556 17.7181 23.5556 18.0556C23.5556 18.3931 23.2806 18.6667 22.9444 18.6667H18.0556C17.7181 18.6667 17.4444 18.3931 17.4444 18.0556C17.4444 17.7181 17.7194 17.4445 18.0556 17.4445ZM10.7222 12.5556C12.0724 12.5556 13.1667 13.6502 13.1667 15C13.1667 16.3498 12.0724 17.4445 10.7222 17.4445C9.37205 17.4445 8.27778 16.3498 8.27778 15C8.27778 13.6502 9.37396 12.5556 10.7222 12.5556ZM8.27778 18.6667H13.1667C14.1792 18.6667 15 19.4875 15 20.5C15 20.8375 14.7264 21.1111 14.3889 21.1111H7.05556C6.71792 21.1111 6.44444 20.8361 6.44444 20.5C6.44444 19.4879 7.26524 18.6667 8.27778 18.6667Z" fill="#2C3D73"/>
</svg>
