<svg width="22" height="22" viewBox="0 0 22 22" fill="none" xmlns="http://www.w3.org/2000/svg">
<path d="M17.4254 9.60778L16.9879 10.0453L16.1129 10.9202L8.17631 18.8569C7.92079 19.1124 7.60333 19.3021 7.25489 19.4028L2.29159 20.8623C1.96638 20.9591 1.61407 20.8701 1.37404 20.6262C1.134 20.3823 1.04108 20.0377 1.13787 19.7086L2.59744 14.7492C2.6981 14.4007 2.8878 14.0833 3.14333 13.8278L11.08 5.89112L11.9549 5.01615L12.3924 4.57867L13.7049 5.89112L16.1091 8.29533L17.4215 9.60778H17.4254ZM4.81583 14.7801L4.45577 15.1402C4.42093 15.175 4.39383 15.2215 4.37834 15.2718L3.39885 18.6013L6.72836 17.6219C6.77869 17.6064 6.82515 17.5793 6.85999 17.5444L7.22005 17.1844H5.43527C5.09458 17.1844 4.81583 16.9056 4.81583 16.5649V14.7801ZM18.6488 1.82601L20.1742 3.35139C21.1421 4.31927 21.1421 5.88724 20.1742 6.85513L19.6128 7.4165L18.7378 8.29146L18.3004 8.72895L16.9879 7.4165L14.5837 5.01228L13.2674 3.69983L13.7049 3.26235L14.5798 2.38738L15.1412 1.82601C16.1091 0.858127 17.677 0.858127 18.6449 1.82601H18.6488Z" fill="#2C3D73"/>
</svg>
