<svg width="30" height="30" viewBox="0 0 30 30" fill="none" xmlns="http://www.w3.org/2000/svg">
<path d="M11.0357 4.36171C11.2768 3.8751 11.7723 3.57153 12.3125 3.57153H17.6875C18.2277 3.57153 18.7232 3.8751 18.9643 4.36171L19.2857 5.0001H23.5714C24.3616 5.0001 25 5.6385 25 6.42868C25 7.21885 24.3616 7.85725 23.5714 7.85725H6.42857C5.63839 7.85725 5 7.21885 5 6.42868C5 5.6385 5.63839 5.0001 6.42857 5.0001H10.7143L11.0357 4.36171ZM6.42857 9.28582H23.5714V23.5715C23.5714 25.1474 22.2902 26.4287 20.7143 26.4287H9.28571C7.70982 26.4287 6.42857 25.1474 6.42857 23.5715V9.28582ZM10.7143 12.143C10.3214 12.143 10 12.4644 10 12.8572V22.8572C10 23.2501 10.3214 23.5715 10.7143 23.5715C11.1071 23.5715 11.4286 23.2501 11.4286 22.8572V12.8572C11.4286 12.4644 11.1071 12.143 10.7143 12.143ZM15 12.143C14.6071 12.143 14.2857 12.4644 14.2857 12.8572V22.8572C14.2857 23.2501 14.6071 23.5715 15 23.5715C15.3929 23.5715 15.7143 23.2501 15.7143 22.8572V12.8572C15.7143 12.4644 15.3929 12.143 15 12.143ZM19.2857 12.143C18.8929 12.143 18.5714 12.4644 18.5714 12.8572V22.8572C18.5714 23.2501 18.8929 23.5715 19.2857 23.5715C19.6786 23.5715 20 23.2501 20 22.8572V12.8572C20 12.4644 19.6786 12.143 19.2857 12.143Z" fill="#2C3D73"/>
</svg>
