<svg width="30" height="30" viewBox="0 0 30 30" fill="none" xmlns="http://www.w3.org/2000/svg">
<g clip-path="url(#clip0_122_43)">
<path d="M16.2222 6.44458C16.2222 6.06646 16.0503 5.71125 15.7524 5.48208C15.4545 5.25291 15.0688 5.16889 14.7021 5.26055L7.8309 6.9793C7.01736 7.18173 6.44444 7.91507 6.44444 8.75534V22.3335H5.22222C4.54618 22.3335 4 22.8796 4 23.5557C4 24.2317 4.54618 24.7779 5.22222 24.7779H7.66667H15H16.2222V23.5557V6.44458ZM13.7778 15.0001C13.7778 15.6762 13.3691 16.2224 12.8611 16.2224C12.3531 16.2224 11.9444 15.6762 11.9444 15.0001C11.9444 14.3241 12.3531 13.7779 12.8611 13.7779C13.3691 13.7779 13.7778 14.3241 13.7778 15.0001ZM17.4444 10.1112H21.1111V23.5557V24.7779H22.3333H24.7778C25.4538 24.7779 26 24.2317 26 23.5557C26 22.8796 25.4538 22.3335 24.7778 22.3335H23.5556V10.1112C23.5556 8.76298 22.4594 7.6668 21.1111 7.6668H17.4444V10.1112Z" fill="#2C3D73"/>
</g>
<defs>
<clipPath id="clip0_122_43">
<rect width="22" height="19.5556" fill="white" transform="translate(4 5.22217)"/>
</clipPath>
</defs>
</svg>
