<svg width="30" height="30" viewBox="0 0 30 30" fill="none" xmlns="http://www.w3.org/2000/svg">
<path d="M13.9789 25.5057C11.7301 22.7399 6.72852 16.0366 6.72852 12.2714C6.72852 7.70318 10.4317 4 14.9999 4C19.5664 4 23.2713 7.70318 23.2713 12.2714C23.2713 16.0366 18.2309 22.7399 16.0209 25.5057C15.491 26.1648 14.5088 26.1648 13.9789 25.5057ZM14.9999 15.0285C16.5207 15.0285 17.7571 13.7921 17.7571 12.2714C17.7571 10.7507 16.5207 9.51427 14.9999 9.51427C13.4792 9.51427 12.2428 10.7507 12.2428 12.2714C12.2428 13.7921 13.4792 15.0285 14.9999 15.0285Z" fill="#2C3D73"/>
</svg>
