<svg width="30" height="30" viewBox="0 0 30 30" fill="none" xmlns="http://www.w3.org/2000/svg">
<path d="M10.5355 5.98358C10.9566 6.36471 10.991 7.01655 10.6086 7.44022L7.51656 10.8794C7.32707 11.0857 7.0598 11.2103 6.77707 11.1802C6.49434 11.2275 6.22105 11.1158 6.02082 10.8794L4.30203 9.16069C3.89932 8.79545 3.89932 8.14233 4.30203 7.73971C4.70469 7.3371 5.35781 7.3371 5.76043 7.73971L6.71047 8.68803L9.07891 6.06006C9.45703 5.63682 10.1102 5.60245 10.5355 5.98358ZM10.5355 12.8603C10.9566 13.2384 10.991 13.8915 10.6086 14.3169L7.51656 17.7544C7.32707 17.9607 7.0598 18.0853 6.77707 18.0552C6.49434 18.1025 6.22105 17.9908 6.02082 17.7544L4.30203 16.0357C3.89932 15.6705 3.89932 15.0173 4.30203 14.6134C4.70469 14.2138 5.35781 14.2138 5.76043 14.6134L6.71047 15.563L9.07891 12.9333C9.45703 12.5123 10.1102 12.4779 10.5355 12.8603ZM13.625 8.46889C13.625 7.70963 14.2395 7.09389 15 7.09389H24.625C25.3855 7.09389 26 7.70963 26 8.46889C26 9.22944 25.3855 9.84389 24.625 9.84389H15C14.2395 9.84389 13.625 9.22944 13.625 8.46889ZM13.625 15.3439C13.625 14.5833 14.2395 13.9689 15 13.9689H24.625C25.3855 13.9689 26 14.5833 26 15.3439C26 16.1044 25.3855 16.7189 24.625 16.7189H15C14.2395 16.7189 13.625 16.1044 13.625 15.3439ZM10.875 22.2189C10.875 21.4583 11.4895 20.8439 12.25 20.8439H24.625C25.3855 20.8439 26 21.4583 26 22.2189C26 22.9794 25.3855 23.5939 24.625 23.5939H12.25C11.4895 23.5939 10.875 22.9794 10.875 22.2189ZM4 22.2189C4 21.0802 4.9234 20.1564 6.0625 20.1564C7.2016 20.1564 8.125 21.0802 8.125 22.2189C8.125 23.3576 7.2016 24.2814 6.0625 24.2814C4.9234 24.2814 4 23.3576 4 22.2189Z" fill="#2C3D73"/>
</svg>
