<svg width="22" height="22" viewBox="0 0 22 22" fill="none" xmlns="http://www.w3.org/2000/svg">
<g clip-path="url(#clip0_498_15)">
<path d="M0 4.88634C0 3.53617 1.09427 2.44189 2.44444 2.44189H19.5556C20.9038 2.44189 22 3.53617 22 4.88634V17.1086C22 18.4568 20.9038 19.553 19.5556 19.553H2.44444C1.09427 19.553 0 18.4568 0 17.1086V4.88634ZM6.11111 10.9974C6.11111 10.3214 5.56493 9.77523 4.88889 9.77523C4.21285 9.77523 3.66667 10.3214 3.66667 10.9974C3.66667 11.6735 4.21285 12.2197 4.88889 12.2197C5.56493 12.2197 6.11111 11.6735 6.11111 10.9974ZM6.11111 7.33078C6.11111 6.65474 5.56493 6.10856 4.88889 6.10856C4.21285 6.10856 3.66667 6.65474 3.66667 7.33078C3.66667 8.00683 4.21285 8.55301 4.88889 8.55301C5.56493 8.55301 6.11111 8.00683 6.11111 7.33078ZM6.11111 14.6641C6.11111 13.9881 5.56493 13.4419 4.88889 13.4419C4.21285 13.4419 3.66667 13.9881 3.66667 14.6641C3.66667 15.3402 4.21285 15.8863 4.88889 15.8863C5.56493 15.8863 6.11111 15.3402 6.11111 14.6641ZM8.55556 6.41412C8.04757 6.41412 7.63889 6.8228 7.63889 7.33078C7.63889 7.83877 8.04757 8.24745 8.55556 8.24745H17.1111C17.6191 8.24745 18.0278 7.83877 18.0278 7.33078C18.0278 6.8228 17.6191 6.41412 17.1111 6.41412H8.55556ZM8.55556 10.0808C8.04757 10.0808 7.63889 10.4895 7.63889 10.9974C7.63889 11.5054 8.04757 11.9141 8.55556 11.9141H17.1111C17.6191 11.9141 18.0278 11.5054 18.0278 10.9974C18.0278 10.4895 17.6191 10.0808 17.1111 10.0808H8.55556ZM8.55556 13.7474C8.04757 13.7474 7.63889 14.1561 7.63889 14.6641C7.63889 15.1721 8.04757 15.5808 8.55556 15.5808H17.1111C17.6191 15.5808 18.0278 15.1721 18.0278 14.6641C18.0278 14.1561 17.6191 13.7474 17.1111 13.7474H8.55556Z" fill="#2C3D73"/>
</g>
<defs>
<clipPath id="clip0_498_15">
<rect width="22" height="22" fill="white"/>
</clipPath>
</defs>
</svg>
