<svg width="22" height="22" viewBox="0 0 22 22" fill="none" xmlns="http://www.w3.org/2000/svg">
<path d="M7.20928 0.760547C7.44131 0.292188 7.91826 0 8.43818 0H13.6116C14.1315 0 14.6085 0.292188 14.8405 0.760547L15.1499 1.375H19.2749C20.0354 1.375 20.6499 1.98945 20.6499 2.75C20.6499 3.51055 20.0354 4.125 19.2749 4.125H2.7749C2.01436 4.125 1.3999 3.51055 1.3999 2.75C1.3999 1.98945 2.01436 1.375 2.7749 1.375H6.8999L7.20928 0.760547ZM2.7749 5.5H19.2749V19.25C19.2749 20.7668 18.0417 22 16.5249 22H5.5249C4.00811 22 2.7749 20.7668 2.7749 19.25V5.5ZM6.8999 8.25C6.52178 8.25 6.2124 8.55937 6.2124 8.9375V18.5625C6.2124 18.9406 6.52178 19.25 6.8999 19.25C7.27803 19.25 7.5874 18.9406 7.5874 18.5625V8.9375C7.5874 8.55937 7.27803 8.25 6.8999 8.25ZM11.0249 8.25C10.6468 8.25 10.3374 8.55937 10.3374 8.9375V18.5625C10.3374 18.9406 10.6468 19.25 11.0249 19.25C11.403 19.25 11.7124 18.9406 11.7124 18.5625V8.9375C11.7124 8.55937 11.403 8.25 11.0249 8.25ZM15.1499 8.25C14.7718 8.25 14.4624 8.55937 14.4624 8.9375V18.5625C14.4624 18.9406 14.7718 19.25 15.1499 19.25C15.528 19.25 15.8374 18.9406 15.8374 18.5625V8.9375C15.8374 8.55937 15.528 8.25 15.1499 8.25Z" fill="#2C3D73"/>
</svg>
