<svg width="30" height="30" viewBox="0 0 30 30" fill="none" xmlns="http://www.w3.org/2000/svg">
<path d="M21.4897 13.5934L21.0478 14.0353L20.164 14.919L12.1475 22.9356C11.8894 23.1937 11.5687 23.3853 11.2168 23.487L6.20349 24.9612C5.87501 25.059 5.51915 24.9691 5.2767 24.7227C5.03425 24.4763 4.94039 24.1283 5.03816 23.7959L6.51242 18.7865C6.61409 18.4346 6.80571 18.1139 7.0638 17.8558L15.0804 9.83927L15.9641 8.95549L16.406 8.5136L17.7317 9.83927L20.1601 12.2677L21.4858 13.5934H21.4897ZM8.75315 18.8178L8.38947 19.1815C8.35427 19.2167 8.3269 19.2636 8.31126 19.3145L7.3219 22.6775L10.6849 21.6881C10.7358 21.6725 10.7827 21.6451 10.8179 21.6099L11.1816 21.2463H9.37883C9.03471 21.2463 8.75315 20.9647 8.75315 20.6206V18.8178ZM22.7254 5.73322L24.2662 7.27397C25.2438 8.2516 25.2438 9.83536 24.2662 10.813L23.6991 11.38L22.8154 12.2638L22.3735 12.7057L21.0478 11.38L18.6194 8.95158L17.2898 7.62591L17.7317 7.18402L18.6155 6.30025L19.1825 5.73322C20.1601 4.75559 21.7439 4.75559 22.7215 5.73322H22.7254Z" fill="#2C3D73"/>
</svg>
