<svg width="30" height="30" viewBox="0 0 30 30" fill="none" xmlns="http://www.w3.org/2000/svg">
<path d="M13.6113 29.2888C10.5527 25.5271 3.75 16.4099 3.75 11.2888C3.75 5.07554 8.78672 0.0388184 15 0.0388184C21.2109 0.0388184 26.25 5.07554 26.25 11.2888C26.25 16.4099 19.3945 25.5271 16.3887 29.2888C15.668 30.1853 14.332 30.1853 13.6113 29.2888ZM15 15.0388C17.0684 15.0388 18.75 13.3572 18.75 11.2888C18.75 9.22046 17.0684 7.53882 15 7.53882C12.9316 7.53882 11.25 9.22046 11.25 11.2888C11.25 13.3572 12.9316 15.0388 15 15.0388Z" fill="#2C3D73"/>
</svg>
