<svg width="30" height="30" fill="none" xmlns="http://www.w3.org/2000/svg"><g clip-path="url(#clip0_0_1530)"><path d="M25 19.375a14.2 14.2 0 01-4.462-.712 1.276 1.276 0 00-1.276.3l-2.75 2.75a18.807 18.807 0 01-8.237-8.238l2.75-2.762a1.2 1.2 0 00.313-1.25A14.2 14.2 0 0110.625 5c0-.688-.563-1.25-1.25-1.25H5c-.688 0-1.25.563-1.25 1.25 0 11.738 9.512 21.25 21.25 21.25.688 0 1.25-.563 1.25-1.25v-4.375c0-.688-.563-1.25-1.25-1.25zM23.75 15h2.5c0-6.213-5.038-11.25-11.25-11.25v2.5A8.744 8.744 0 0123.75 15zm-5 0h2.5c0-3.45-2.8-6.25-6.25-6.25v2.5A3.745 3.745 0 0118.75 15z" fill="#2C3D73"/></g><defs><clipPath id="clip0_0_1530"><path fill="#fff" d="M0 0h30v30H0z"/></clipPath></defs></svg>