<svg width="187" height="21" fill="none" xmlns="http://www.w3.org/2000/svg"><path d="M29.258 3.958a9.683 9.683 0 00-12.739-.82 6.03 6.03 0 00-.45.381c-.148.137-.233.208-.347.317l-.927.899-.418.39-.42.405-5.061 4.904 4.964 4.996.41.412.41.412a7.218 7.218 0 01-.458.363 7.881 7.881 0 01-4.438 1.512 7.889 7.889 0 01-4.01-.973 7.75 7.75 0 01-2.943-2.853 7.607 7.607 0 01-1.055-3.936 7.61 7.61 0 011.131-3.914 7.755 7.755 0 013-2.798 7.891 7.891 0 017.953.36l1.045-1.011.25-.233a9.685 9.685 0 00-10.172-.616 9.508 9.508 0 00-3.767 3.68 9.33 9.33 0 00.527 10.033 9.549 9.549 0 004.134 3.276 9.698 9.698 0 005.267.604 9.63 9.63 0 004.955-2.406l.09-.084.085-.08.929-.897 5.905-5.71-4.97-4.997-.41-.41-.411-.42a7.442 7.442 0 01.948-.693 7.887 7.887 0 017.956-.206A7.747 7.747 0 0129.163 6.7a7.604 7.604 0 01-.077 7.847 7.753 7.753 0 01-2.998 2.796 7.89 7.89 0 01-7.95-.359l-.117.113-.929.898-.25.233a9.676 9.676 0 006.727 1.706 9.614 9.614 0 006.126-3.228 9.356 9.356 0 002.3-6.461 9.374 9.374 0 00-2.737-6.294v.008zm-8.653 6.59l-3.819 3.691-.416.405-.416.404-.41-.412-4.152-4.167 3.817-3.69.834-.808.409.412.41.41 3.743 3.756z" fill="#E51E2F"/><path d="M38.68 16.5V5.3h1.312l5.024 8.464h-.704l4.96-8.464h1.312l.016 11.2h-1.536l-.016-8.784h.368L45 15.14h-.736l-4.448-7.424h.4V16.5H38.68zm16.737-6.368h5.76v1.36h-5.76v-1.36zm.144 4.976h6.528V16.5h-8.128V5.3h7.904v1.392h-6.304v8.416zM64.68 16.5V5.3h4.72c1.195 0 2.245.235 3.152.704.917.47 1.627 1.125 2.128 1.968.512.843.768 1.819.768 2.928 0 1.11-.256 2.085-.768 2.928-.501.843-1.21 1.499-2.128 1.968-.907.47-1.957.704-3.152.704h-4.72zm1.6-1.392h3.024c.928 0 1.728-.176 2.4-.528a3.844 3.844 0 001.584-1.472c.373-.64.56-1.376.56-2.208 0-.843-.187-1.579-.56-2.208a3.844 3.844 0 00-1.584-1.472c-.672-.352-1.472-.528-2.4-.528H66.28v8.416zm11.45 1.488c-.298 0-.554-.101-.768-.304a1.085 1.085 0 01-.32-.8c0-.32.107-.581.32-.784.214-.203.47-.304.768-.304a1 1 0 01.736.304c.214.203.32.464.32.784s-.106.587-.32.8a1.002 1.002 0 01-.736.304zm3.481-.096V5.3h4.368c.982 0 1.819.155 2.512.464.694.31 1.227.757 1.6 1.344.374.587.56 1.285.56 2.096 0 .81-.186 1.51-.56 2.096-.373.576-.906 1.024-1.6 1.344-.693.31-1.53.464-2.512.464h-3.488l.72-.752V16.5h-1.6zm1.6-3.984l-.72-.8h3.44c1.024 0 1.798-.219 2.32-.656.534-.437.8-1.056.8-1.856s-.266-1.419-.8-1.856c-.522-.437-1.296-.656-2.32-.656h-3.44l.72-.8v6.624zm9.79 3.984V5.3h4.369c.981 0 1.819.155 2.512.464.693.31 1.227.757 1.6 1.344.373.587.56 1.285.56 2.096 0 .81-.187 1.51-.56 2.096-.373.576-.907 1.019-1.6 1.328-.694.31-1.53.464-2.512.464h-3.488l.72-.736V16.5h-1.6zm7.489 0l-2.848-4.064h1.712l2.88 4.064h-1.744zm-5.888-3.984l-.72-.784h3.44c1.024 0 1.797-.219 2.32-.656.533-.448.8-1.072.8-1.872s-.267-1.419-.8-1.856c-.523-.437-1.296-.656-2.32-.656h-3.44l.72-.8v6.624zm15.081 4.112a6.486 6.486 0 01-2.384-.432 5.766 5.766 0 01-1.888-1.2 5.68 5.68 0 01-1.248-1.824 5.676 5.676 0 01-.448-2.272c0-.821.149-1.579.448-2.272a5.498 5.498 0 011.248-1.808 5.636 5.636 0 011.888-1.216 6.403 6.403 0 012.384-.432c.853 0 1.637.144 2.352.432a5.438 5.438 0 011.888 1.2 5.19 5.19 0 011.248 1.808c.299.693.448 1.456.448 2.288 0 .832-.149 1.595-.448 2.288a5.35 5.35 0 01-1.248 1.824 5.766 5.766 0 01-1.888 1.2 6.452 6.452 0 01-2.352.416zm0-1.424c.619 0 1.189-.107 1.712-.32a4.047 4.047 0 002.288-2.272 4.3 4.3 0 00.336-1.712 4.3 4.3 0 00-.336-1.712 3.956 3.956 0 00-.912-1.36 3.934 3.934 0 00-1.376-.912 4.488 4.488 0 00-1.712-.32 4.66 4.66 0 00-1.744.32 4.136 4.136 0 00-1.376.912 4.16 4.16 0 00-.928 1.36 4.494 4.494 0 00-.32 1.712c0 .619.107 1.19.32 1.712.224.523.533.981.928 1.376.395.384.853.683 1.376.896a4.66 4.66 0 001.744.32zm13.437 1.424a6.626 6.626 0 01-2.384-.416 5.776 5.776 0 01-1.888-1.2 5.68 5.68 0 01-1.248-1.824 5.734 5.734 0 01-.448-2.288c0-.832.15-1.595.448-2.288a5.498 5.498 0 011.248-1.808 5.61 5.61 0 011.904-1.2c.726-.288 1.526-.432 2.4-.432.886 0 1.696.144 2.432.432.736.288 1.36.72 1.872 1.296l-.992.992a4.286 4.286 0 00-1.504-.976 4.65 4.65 0 00-1.744-.32 4.95 4.95 0 00-1.792.32 4.37 4.37 0 00-1.424.896 4.132 4.132 0 00-.928 1.376 4.494 4.494 0 00-.32 1.712c0 .608.107 1.179.32 1.712.224.523.534.981.928 1.376.406.384.88.683 1.424.896a4.83 4.83 0 001.776.32c.598 0 1.168-.09 1.712-.272a4.31 4.31 0 001.536-.944l.912 1.216a5.767 5.767 0 01-1.952 1.072 7.482 7.482 0 01-2.288.352zm2.704-1.632v-4.16h1.536v4.368l-1.536-.208zm4.6 1.504V5.3h4.368c.981 0 1.818.155 2.512.464.693.31 1.226.757 1.6 1.344.373.587.56 1.285.56 2.096 0 .81-.187 1.51-.56 2.096-.374.576-.907 1.019-1.6 1.328-.694.31-1.531.464-2.512.464h-3.488l.72-.736V16.5h-1.6zm7.488 0l-2.848-4.064h1.712l2.88 4.064h-1.744zm-5.888-3.984l-.72-.784h3.44c1.024 0 1.797-.219 2.32-.656.533-.448.8-1.072.8-1.872s-.267-1.419-.8-1.856c-.523-.437-1.296-.656-2.32-.656h-3.44l.72-.8v6.624zm11.481-2.384h5.76v1.36h-5.76v-1.36zm.144 4.976h6.528V16.5h-8.128V5.3h7.904v1.392h-6.304v8.416zm12.383 1.52c-.854 0-1.67-.128-2.448-.384-.779-.267-1.392-.608-1.84-1.024l.592-1.248c.426.373.97.683 1.632.928a5.885 5.885 0 002.064.368c.65 0 1.178-.075 1.584-.224.405-.15.704-.352.896-.608.192-.267.288-.565.288-.896 0-.384-.128-.693-.384-.928-.246-.235-.571-.421-.976-.56a9.617 9.617 0 00-1.312-.384c-.48-.107-.966-.23-1.456-.368a7.083 7.083 0 01-1.328-.56 2.757 2.757 0 01-.96-.896c-.246-.384-.368-.875-.368-1.472 0-.576.149-1.104.448-1.584.309-.49.778-.88 1.408-1.168.64-.299 1.45-.448 2.432-.448.65 0 1.296.085 1.936.256.64.17 1.194.416 1.663.736l-.527 1.28a4.98 4.98 0 00-1.52-.688 5.751 5.751 0 00-1.552-.224c-.63 0-1.147.08-1.552.24-.406.16-.704.373-.896.64a1.552 1.552 0 00-.272.896c0 .395.122.71.368.944.256.235.581.421.976.56.405.139.848.267 1.328.384.48.107.96.23 1.44.368.49.139.933.32 1.328.544.405.224.73.523.976.896.245.373.368.853.368 1.44 0 .565-.155 1.093-.465 1.584-.309.48-.789.87-1.439 1.168-.64.288-1.451.432-2.432.432zm9.937 0a7.79 7.79 0 01-2.448-.384c-.779-.267-1.392-.608-1.84-1.024l.592-1.248c.427.373.971.683 1.632.928a5.885 5.885 0 002.064.368c.651 0 1.179-.075 1.584-.224.405-.15.704-.352.896-.608.192-.267.288-.565.288-.896 0-.384-.128-.693-.384-.928-.245-.235-.571-.421-.976-.56a9.617 9.617 0 00-1.312-.384 26.54 26.54 0 01-1.456-.368 7.083 7.083 0 01-1.328-.56 2.757 2.757 0 01-.96-.896c-.245-.384-.368-.875-.368-1.472 0-.576.149-1.104.448-1.584.309-.49.779-.88 1.408-1.168.64-.299 1.451-.448 2.432-.448.651 0 1.296.085 1.936.256.64.17 1.195.416 1.664.736l-.528 1.28a4.98 4.98 0 00-1.52-.688 5.746 5.746 0 00-1.552-.224c-.629 0-1.147.08-1.552.24-.405.16-.704.373-.896.64a1.56 1.56 0 00-.272.896c0 .395.123.71.368.944.256.235.581.421.976.56.405.139.848.267 1.328.384.48.107.96.23 1.44.368.491.139.933.32 1.328.544.405.224.731.523.976.896s.368.853.368 1.44a2.92 2.92 0 01-.464 1.584c-.309.48-.789.87-1.44 1.168-.64.288-1.451.432-2.432.432zm15.69-.08a5.576 5.576 0 01-4.016-1.632 5.757 5.757 0 01-1.2-1.808 5.817 5.817 0 01-.416-2.208c0-.79.144-1.525.432-2.208a5.568 5.568 0 011.2-1.792 5.452 5.452 0 011.792-1.216 5.783 5.783 0 012.24-.432c.8 0 1.542.144 2.224.432a5.145 5.145 0 011.792 1.184 5.36 5.36 0 011.184 1.792c.288.672.432 1.408.432 2.208 0 .8-.144 1.547-.432 2.24a5.62 5.62 0 01-3.008 3.008 5.66 5.66 0 01-2.224.432zm0-.72c.694 0 1.339-.128 1.936-.384a4.947 4.947 0 001.568-1.056c.448-.448.795-.97 1.04-1.568a5.154 5.154 0 00.368-1.952c0-.693-.122-1.339-.368-1.936a4.67 4.67 0 00-1.024-1.552 4.676 4.676 0 00-1.552-1.024 4.786 4.786 0 00-1.936-.384 5.02 5.02 0 00-1.968.384 4.468 4.468 0 00-1.552 1.056c-.437.448-.778.97-1.024 1.568a4.933 4.933 0 00-.368 1.92c0 .693.123 1.339.368 1.936a4.779 4.779 0 002.576 2.624 5.05 5.05 0 001.936.368zm.176-1.632c-.65 0-1.232-.139-1.744-.416a3.042 3.042 0 01-1.2-1.152c-.288-.501-.432-1.077-.432-1.728 0-.65.144-1.221.432-1.712a3.01 3.01 0 011.2-1.168c.512-.277 1.094-.416 1.744-.416a3.22 3.22 0 011.52.352c.459.224.816.539 1.072.944l-.912.656a1.834 1.834 0 00-.752-.656 2.145 2.145 0 00-.944-.208c-.416 0-.784.096-1.104.288-.309.181-.56.437-.752.768-.192.32-.288.704-.288 1.152 0 .448.096.837.288 1.168.192.32.443.576.752.768a2.2 2.2 0 001.104.272c.342 0 .656-.07.944-.208.299-.139.55-.357.752-.656l.912.64a2.678 2.678 0 01-1.072.96 3.224 3.224 0 01-1.52.352z" fill="#2C3D73"/></svg>