<svg width="20" height="16" fill="none" xmlns="http://www.w3.org/2000/svg"><path d="M4.71 2.899C6.093 1.821 7.868 1 10 1c2.525 0 4.547 1.151 6.019 2.519 1.462 1.356 2.44 2.953 2.903 4.097a.994.994 0 010 .768c-.419 1.01-1.26 2.431-2.497 3.7l3.287 2.575a.75.75 0 01-.925 1.181L.287 1.34A.75.75 0 111.213.16l3.496 2.739zm2.262 1.773l2.822 2.212c.13-.265.206-.565.206-.912 0-.331-.122-.669-.263-.96.088-.009.175-.04.263-.04a3 3 0 013 3c0 .456-.09.862-.278 1.231l1.234.944a4.506 4.506 0 00.544-2.175c0-2.456-2.016-4.5-4.5-4.5-1.166 0-2.231.472-3.028 1.2zM10 15c-2.525 0-4.547-1.15-6.019-2.519C2.52 11.097 1.541 9.5 1.077 8.384a1 1 0 010-.768c.298-.716.807-1.641 1.52-2.57L5.544 7.37a4.567 4.567 0 00-.044.603c0 2.512 2.016 4.528 4.5 4.528.584 0 1.144-.113 1.656-.316l2.288 1.8A8.215 8.215 0 0110 15z" fill="#2C3D73"/></svg>