<svg width="580" height="450" fill="none" xmlns="http://www.w3.org/2000/svg"><g clip-path="url(#clip0_0_120)"><path d="M493.558 418.194c-20.436-12.527-26.418-37.702-27.02-60.613-.101-3.823-.762-7.824.848-11.282 1.61-3.458 5.71-6.01 9.227-4.603 2.914 1.162 4.346 4.383 6.092 7.019a22.344 22.344 0 009.472 8.01c2.542 1.11 5.558 1.695 7.871.237 3.186-2.017 3.296-6.586 3.042-10.383-.463-7.081-.932-14.144-1.406-21.191-.254-3.797-.5-7.671.466-11.341.966-3.67 3.389-7.18 6.914-8.417 3.524-1.238 8.142.585 9.125 4.238.415 1.526.195 3.153.398 4.721s1.034 3.272 2.542 3.62c1.508.347 2.999-.848 4.067-1.992 3.685-4.069 6.041-9.172 8.227-14.232 2.186-5.06 4.296-10.231 7.625-14.63 3.33-4.399 8.024-8.01 13.438-8.646 5.414-.635 11.413 2.374 13.108 7.629 1.694 5.255-1.093 10.892-4.237 15.427a85.063 85.063 0 01-16.623 17.885c-1.153.924-2.39 1.915-2.762 3.39-.67 2.543 1.872 4.95 4.422 5.628 2.89.772 5.931.289 8.922.458 2.991.17 6.262 1.288 7.55 4.018 1.787 3.789-1.212 8.052-4.237 10.909a72.709 72.709 0 01-20.733 13.697c-2.728 1.187-5.617 2.263-7.744 4.366-2.127 2.102-3.287 5.585-1.771 8.179 1.517 2.594 5.084 3.247 7.965 2.543 2.88-.703 5.405-2.467 8.133-3.687 5.084-2.289 11.862-2.331 15.463 1.975 2.373 2.831 2.822 6.95 1.924 10.544-.898 3.594-2.966 6.781-5.194 9.731-7.761 10.316-17.988 18.868-29.833 23.793-11.845 4.925-22.987 6.781-35.281 3.068" fill="#5BA6EB"/><path d="M498.6 403.497a341.77 341.77 0 0111.285-37.44l3.466-9.663c1.144-3.17 2.279-6.315 3.575-9.324a170.504 170.504 0 018.473-16.842c2.949-5.23 5.931-10.078 8.761-14.596 2.83-4.518 5.567-8.663 8.21-12.35a135.566 135.566 0 0113.76-16.427 130.156 130.156 0 014.16-4.069l1.119-1.017c.121-.123.255-.233.398-.33a3.06 3.06 0 01-.348.381c-.271.263-.618.619-1.067 1.077a182.35 182.35 0 00-4.067 4.153 142.957 142.957 0 00-13.557 16.529c-2.609 3.687-5.304 7.849-8.117 12.366-2.812 4.518-5.77 9.384-8.693 14.605a173.451 173.451 0 00-8.388 16.791c-1.288 2.993-2.406 6.112-3.55 9.324l-3.457 9.655a348.126 348.126 0 00-11.319 37.355" fill="#A7A7A7"/><path d="M517.13 347.036a7.507 7.507 0 01-.475-1.593c-.263-1.043-.593-2.543-.974-4.425-.763-3.755-1.644-8.959-2.593-14.715-.949-5.755-1.898-10.934-2.711-14.663a218.001 218.001 0 00-1-4.408 7.922 7.922 0 01-.314-1.636c.249.5.443 1.026.577 1.568.33 1.017.745 2.543 1.211 4.365.949 3.713 1.983 8.9 2.932 14.656.949 5.755 1.754 10.815 2.389 14.74.297 1.771.551 3.263.754 4.458.121.544.189 1.097.204 1.653z" fill="#A7A7A7"/><path d="M565.374 334.966c-.632.177-1.279.297-1.932.356-1.245.187-3.05.441-5.27.848-4.44.754-10.54 2.009-17.2 3.687a257.352 257.352 0 00-16.946 4.891c-2.143.695-3.863 1.305-5.083 1.695-.605.253-1.232.449-1.873.585a10.296 10.296 0 011.78-.848 90.102 90.102 0 014.99-1.932c4.236-1.543 10.218-3.391 16.903-5.086a173.13 173.13 0 0117.293-3.484 77.198 77.198 0 015.313-.627c.67-.094 1.349-.122 2.025-.085zm-66.232 67.598a3.153 3.153 0 01-.373-.576l-.94-1.695c-.805-1.492-1.924-3.688-3.271-6.417-2.686-5.45-6.168-13.087-9.896-21.58-3.728-8.494-7.134-16.173-9.71-21.666l-3.067-6.501-.847-1.78a2.17 2.17 0 01-.246-.636c.144.177.266.371.364.577l.941 1.695c.847 1.492 1.932 3.687 3.279 6.408 2.686 5.45 6.168 13.096 9.896 21.589 3.728 8.493 7.134 16.156 9.71 21.657l3.067 6.501.847 1.772c.115.203.198.423.246.652zm63.58-24.81c-.194.13-.405.232-.627.305l-1.847.746-6.778 2.67c-5.753 2.255-13.65 5.459-22.377 9.019-8.727 3.56-16.674 6.688-22.47 8.832a279.97 279.97 0 01-6.888 2.458l-1.89.619a2.36 2.36 0 01-.678.17 2.6 2.6 0 01.627-.305l1.797-.78 6.778-2.67c5.753-2.255 13.658-5.459 22.385-9.019 8.727-3.56 16.666-6.696 22.462-8.832a278.48 278.48 0 016.888-2.458l1.889-.619c.235-.083.481-.128.729-.136z" fill="#A7A7A7"/><path d="M503.709 157.914c-3.491 8.731-9.066 22.886-11.633 29.328a3.73 3.73 0 002.092 4.84l23.843 9.494a3.726 3.726 0 004.838-2.086l11.565-29.048a8.248 8.248 0 00-.08-6.339 8.274 8.274 0 00-4.546-4.417l1.695-4.238-15.607-6.222-1.576 4.001h-.059a8.266 8.266 0 00-10.532 4.687z" fill="#5BA6EB"/><path d="M515.664 149.735l-.771 1.941 15.387 6.772.999-2.492-15.615-6.221z" fill="#A7A7A7"/><path d="M518.796 143.479l14.554 5.8a2.545 2.545 0 011.42 3.304l-1.542 3.874a1.637 1.637 0 01-2.125.914l-16.23-6.468a1.632 1.632 0 01-.914-2.125l1.546-3.882a2.54 2.54 0 013.302-1.421l-.011.004z" fill="#F1F1F1"/><path d="M515.825 151.278a20.302 20.302 0 011.33-3.942 20.717 20.717 0 011.746-3.78 19.833 19.833 0 01-1.33 3.941 19.143 19.143 0 01-1.746 3.781zm2.059.822c.304-1.357.75-2.678 1.33-3.942a19.188 19.188 0 011.745-3.78 19.706 19.706 0 01-1.33 3.941 19.197 19.197 0 01-1.745 3.781zm2.059.822c.304-1.357.75-2.678 1.33-3.941a19.143 19.143 0 011.746-3.781 20.239 20.239 0 01-1.331 3.942 20.713 20.713 0 01-1.745 3.78zm2.058.814a19.509 19.509 0 011.331-3.942 18.952 18.952 0 011.745-3.772 19.87 19.87 0 01-1.339 3.942 19.759 19.759 0 01-1.737 3.772zm2.06.822a19.259 19.259 0 011.33-3.967 20.337 20.337 0 011.694-3.78 19.172 19.172 0 01-1.33 3.941 20.06 20.06 0 01-1.694 3.806zm2.05.822a19.441 19.441 0 011.339-3.941 20.076 20.076 0 011.736-3.781 19.444 19.444 0 01-1.33 3.942 19.475 19.475 0 01-1.745 3.78zm2.059.814a20.19 20.19 0 011.33-3.908 20.118 20.118 0 011.746-3.806 20.216 20.216 0 01-1.331 3.942 18.926 18.926 0 01-1.745 3.772zm2.059.822a20.138 20.138 0 011.33-3.941 19.483 19.483 0 011.745-3.781 19.864 19.864 0 01-1.33 3.942 19.77 19.77 0 01-1.745 3.78z" fill="#A7A7A7"/><path d="M527.58 172.344l-20.041-7.987a1.255 1.255 0 00-1.629.701l-4.966 12.474a1.253 1.253 0 00.701 1.629l20.04 7.987a1.254 1.254 0 001.629-.702l4.967-12.473a1.255 1.255 0 00-.701-1.629z" fill="#F1F1F1"/><path d="M521.773 185.971c.022-.09.05-.177.084-.263l.254-.695c.246-.636.577-1.509.992-2.611l3.626-9.324.093.229-19.623-7.772c-.059 0 .543-.238.288-.119v.161l-.084.212-.17.424-.339.847-.669 1.696c-.441 1.11-.847 2.212-1.313 3.28-.848 2.153-1.695 4.238-2.474 6.187l-.111-.262 13.947 5.687 4.041 1.696 1.076.457c.134.043.262.103.382.178l-.356-.118-1.059-.399-4.033-1.551-14.235-5.56-.186-.077.076-.186c.78-1.967 1.601-4.043 2.449-6.196l1.305-3.281c.22-.551.44-1.118.669-1.695l.33-.847.178-.433.085-.212v-.161c-.254.111.356-.152.297-.118l19.589 7.849.161.067-.068.162c-1.593 3.899-2.906 7.111-3.83 9.383l-1.067 2.543-.28.652a.894.894 0 01-.025.17z" fill="#A7A7A7"/><path d="M522.197 176.07a59.305 59.305 0 01-6.779-2.449 56.8 56.8 0 01-6.583-2.865 59.673 59.673 0 016.778 2.449 56.252 56.252 0 016.584 2.865zm-.899 2.264a59.037 59.037 0 01-6.778-2.45 60.319 60.319 0 01-6.583-2.856 56.598 56.598 0 016.778 2.449 57.597 57.597 0 016.583 2.857zm-.864 2.178a58.225 58.225 0 01-6.778-2.45 56.563 56.563 0 01-6.584-2.864 58.926 58.926 0 016.779 2.449 57.572 57.572 0 016.583 2.865zm8.515-21.318a70.703 70.703 0 01-7.345-2.67 71.297 71.297 0 01-7.194-3.102c2.5.762 4.955 1.662 7.355 2.696a65.447 65.447 0 017.184 3.076z" fill="#A7A7A7"/><path d="M494.033 186.073c.125-.48.284-.95.474-1.408.365-.957.847-2.229 1.441-3.763 1.228-3.179 2.957-7.561 4.897-12.384.974-2.407 1.898-4.696 2.754-6.781a14.534 14.534 0 013.075-5.17 6.62 6.62 0 013.601-1.84 4.792 4.792 0 011.11 0c.246.043.381.077.373.094a8.453 8.453 0 00-1.457.084 6.477 6.477 0 00-3.39 1.891 14.609 14.609 0 00-2.94 5.085l-2.719 6.781c-1.932 4.823-3.712 9.18-5.016 12.325l-1.568 3.721c-.17.473-.383.93-.635 1.365zm26.791 15.375a5.681 5.681 0 01-.932-.762 19.635 19.635 0 00-1.085-.907c-.44-.339-.898-.746-1.465-1.145a39.944 39.944 0 00-4.042-2.678 40.777 40.777 0 00-15.751-5.213c-.686-.093-1.313-.119-1.855-.17a20.37 20.37 0 00-1.407-.084 6.14 6.14 0 01-1.203-.094 6.463 6.463 0 011.203-.076c.471-.025.944-.025 1.415 0 .551 0 1.186 0 1.873.11 1.627.139 3.244.388 4.838.746a37.81 37.81 0 0111.099 4.425 35.588 35.588 0 014.025 2.78c.55.415 1.016.848 1.431 1.204.416.356.763.695 1.034.974.301.271.576.569.822.89z" fill="#fff"/><path d="M74.743 194.97L9.138 226.556a2.044 2.044 0 00-.954 2.727l44.037 91.538a2.042 2.042 0 002.725.955l65.605-31.586a2.043 2.043 0 00.954-2.727l-44.037-91.538a2.042 2.042 0 00-2.725-.955z" fill="#A7A7A7"/><path d="M73.698 197.973l-61.551 29.634 42.637 88.629 61.55-29.635-42.636-88.628z" fill="#fff"/><path d="M56.082 208.094a8.385 8.385 0 00-8.752-.916l-1.89-3.738a5.74 5.74 0 00-5.496-3.253 5.733 5.733 0 00-3.967 1.907 5.745 5.745 0 00-.891 6.33l1.89 3.933-1.314.661a8.369 8.369 0 00-4.618 7.375v1.949l26.8-12.909-1.762-1.339zm-14.303.61a3.094 3.094 0 11-2.706-5.564 3.094 3.094 0 012.706 5.564z" fill="#F1F1F1"/><path d="M41 229.174c.06.11-3.635 1.992-8.244 4.238-4.61 2.247-8.388 3.933-8.473 3.823-.085-.11 3.635-2 8.244-4.238 4.61-2.238 8.422-3.933 8.473-3.823zm-7.287 6.976a22.619 22.619 0 01-3.923 2.136 23.13 23.13 0 01-4.118 1.695 22.3 22.3 0 013.923-2.085 22.879 22.879 0 014.118-1.746zm42.983-11.036c.05.11-10.303 5.205-23.123 11.384-12.819 6.179-23.274 11.095-23.325 11.019-.051-.076 10.303-5.205 23.13-11.384 12.828-6.179 23.267-11.129 23.318-11.019zm2.101 4.433c.05.11-10.303 5.205-23.131 11.384S32.4 252.026 32.349 251.95c-.051-.076 10.294-5.213 23.13-11.384 12.837-6.17 23.318-11.146 23.318-11.019zm2.16 4.433c.06.111-10.302 5.205-23.122 11.375-12.82 6.171-23.266 11.096-23.325 11.02-.06-.077 10.303-5.205 23.13-11.384 12.828-6.179 23.267-11.121 23.317-11.011zm2.136 4.425c.05.11-10.303 5.213-23.131 11.383-12.828 6.171-23.266 11.096-23.317 11.02-.051-.077 10.303-5.205 23.13-11.384 12.828-6.179 23.258-11.129 23.318-11.019zm2.135 4.433c.05.11-10.303 5.204-23.13 11.384-12.829 6.179-23.267 11.095-23.318 11.019-.05-.077 10.294-5.205 23.122-11.384s23.267-11.129 23.326-11.019zm2.126 4.433c.051.11-10.302 5.205-23.122 11.384s-23.275 11.087-23.326 11.019c-.05-.068 10.303-5.247 23.131-11.435 12.828-6.187 23.233-11.078 23.317-10.968zm-21.266 15.207a4.92 4.92 0 01-.847.517l-2.542 1.229a527.315 527.315 0 01-8.185 4.017 504.171 504.171 0 01-8.244 3.891l-2.542 1.136c-.301.157-.62.279-.949.364.263-.202.547-.375.848-.517l2.457-1.263a546.84 546.84 0 018.184-4.009 551.492 551.492 0 018.245-3.899l2.541-1.136a4.22 4.22 0 011.034-.33zm7.295-49.392a19.219 19.219 0 01-3.626 1.984c-1.21.666-2.489 1.2-3.813 1.593a19.586 19.586 0 013.626-1.992 19.626 19.626 0 013.813-1.585zm-13.226 64.098a49.78 49.78 0 01-5.931 3.094 50.688 50.688 0 01-6.126 2.712 49.804 49.804 0 015.931-3.102 50.517 50.517 0 016.126-2.704zm2.321 3.831a50.746 50.746 0 01-6.032 3.153 53.806 53.806 0 01-6.228 2.755 53.965 53.965 0 016.033-3.153 53.806 53.806 0 016.227-2.755zm32.358-21.275a11.954 11.954 0 01-2.813 1.602c-.947.534-1.962.938-3.016 1.203a12.015 12.015 0 012.821-1.602 11.83 11.83 0 013.008-1.203zm1.949 3.517a11.945 11.945 0 01-2.822 1.602c-.943.538-1.955.946-3.007 1.212a11.788 11.788 0 012.813-1.61 12.197 12.197 0 013.016-1.204zm-37.899 24.692a11.52 11.52 0 01-2.72 1.559 11.22 11.22 0 01-2.914 1.153c.83-.64 1.745-1.162 2.72-1.551a11.184 11.184 0 012.914-1.161zm40.127-20.564a6.379 6.379 0 01-2.008 1.221 6.428 6.428 0 01-2.211.847 6.402 6.402 0 012.017-1.212 6.363 6.363 0 012.202-.856zm-41.542 32.998c.071-.071.15-.134.237-.186l.712-.475 2.737-1.754 9.837-6.18.195-.118.084.212a5.588 5.588 0 01.11 3.738 4.553 4.553 0 01-6.905 2.458 3.933 3.933 0 01-1.398-4.128c.153-.573.444-1.1.848-1.534.096-.113.204-.215.321-.306a1.69 1.69 0 01.382-.262.639.639 0 01.593 0c.142.1.259.234.339.39.51.97.8 2.041.847 3.136a7.349 7.349 0 01-.483 3.102 4.688 4.688 0 01-1.822 2.416 2.704 2.704 0 01-2.863-.068 4.088 4.088 0 01-1.695-2.128 9.876 9.876 0 010-4.78l.05-.322.221.246a6.637 6.637 0 011.619 3.653 7.147 7.147 0 01-.289 3 6.354 6.354 0 01-.847 1.696 9.07 9.07 0 01-.322.381.603.603 0 01-.118.119 8.044 8.044 0 001.143-2.229 7.22 7.22 0 00.204-2.925 6.404 6.404 0 00-1.602-3.467l.271-.084a9.538 9.538 0 000 4.611 3.726 3.726 0 001.551 1.915 2.32 2.32 0 002.449.051 4.362 4.362 0 001.643-2.221 7.238 7.238 0 00-.372-5.874.49.49 0 00-.178-.22h-.187a2.265 2.265 0 00-.55.466 3.138 3.138 0 00-.712 1.348 3.502 3.502 0 001.237 3.662 4.07 4.07 0 003.779.432 4.13 4.13 0 002.457-2.619 5.164 5.164 0 00-.076-3.467l.28.085-9.922 6.043-2.797 1.696-.737.423a1.016 1.016 0 01-.27.068zm43.991-21.368a2.548 2.548 0 01-.136.788c-.085.32-.216.625-.389.907a1.887 1.887 0 01-1.06.847c-.275.09-.572.09-.847 0a1.685 1.685 0 01-.703-.551 16.04 16.04 0 01-.957-1.619l-2.102-3.839.382-.093c-.068 1.949-.136 4.068-.22 6.289 0 .525 0 1.051-.06 1.568v.848l-.381-.789c-1.161-2.382-2.237-4.602-3.178-6.543h.348a22.59 22.59 0 00-.848 5.933c0 1.441.094 2.272.051 2.272a1.77 1.77 0 01-.127-.585c-.05-.39-.118-.958-.144-1.695a20.64 20.64 0 01.661-6.01l.127-.492.229.45 3.236 6.518-.423.093c0-.517.042-1.043.06-1.568.092-2.221.177-4.34.253-6.289v-.763l.348.678a680.098 680.098 0 012.05 3.873c.255.546.538 1.078.847 1.594a1.126 1.126 0 001.229.517 2.165 2.165 0 001.381-1.5c.102-.29.226-.57.373-.839z" fill="#A7A7A7"/><path d="M101.377 275.836c.068.102-3.432 2.602-7.812 5.577-4.38 2.975-7.99 5.323-8.058 5.222-.068-.102 3.39-2.602 7.812-5.586 4.423-2.984 7.99-5.315 8.058-5.213zm4.296.746a68.508 68.508 0 01-5.728 5.213 67.566 67.566 0 01-6.015 4.882 67.655 67.655 0 015.727-5.221 68.211 68.211 0 016.016-4.874z" fill="#A7A7A7"/><path d="M136.666 93.97h-3.567l-7.778-10.85V76s-5.515-.339-4.863 8.985c.652 9.324-.051 6.95-.051 6.95s-11.701.043-12.709 1.06c-.712.746-1.025 12.367-1.152 18.648a6.84 6.84 0 004.838 6.874c.411.11.836.167 1.262.169 2.915 0 17.793-2.373 17.793-2.373h6.16l.067-22.343zm10.21-1.958l-2.194 24.403h-6.109V92.503l8.303-.491z" fill="#5BA6EB"/><path d="M411.711 96.131c-.915-7.417-7.193-14.342-14.675-14.35-4.414 0-8.608 2.314-11.624 5.535a30.963 30.963 0 00-2.957 3.5 30.284 30.284 0 00-2.203-4.009c-2.322-3.763-5.982-6.849-10.312-7.713-7.303-1.475-14.844 4.077-17.208 11.172-2.364 7.094-.398 15.062 3.491 21.453 3.889 6.391 10.574 14.74 22.876 18.894 8.473-1.094 19.878-8.638 24.944-14.139 5.067-5.501 8.583-12.918 7.668-20.343z" fill="#E8505B"/><path d="M409.017 109.464a.921.921 0 01-.246 0h-.72l-2.771-.229-10.167-.932.187-.11-4.237 11.019-.254.669-.17-.695a4479.718 4479.718 0 01-4.236-17.698c-.466-1.966-.932-3.89-1.381-5.772l.432.085-7.761 10.671-.076.102h-.127l-17.861-1.865-5.084-.568-1.338-.169a2.15 2.15 0 01-.458-.077c.155-.018.311-.018.466 0l1.339.102 5.083.441 17.878 1.695-.195.093 7.719-10.73.305-.424.119.508c.457 1.89.915 3.814 1.389 5.772l4.237 17.716h-.424c1.601-4.094 3.067-7.824 4.321-11.019v-.127h.136l10.167 1.093 2.754.322.72.093a.874.874 0 01.254.034z" fill="#fff"/><path d="M227.749 142.479h-5.592v25.081h5.592v-25.081z" fill="#E8505B"/><path d="M212.414 152.218v5.595h25.071v-5.595h-25.071z" fill="#E8505B"/><path d="M245.771 155.075a2.415 2.415 0 01-.042-.339c0-.237 0-.568-.068-.983 0-.221-.017-.466-.051-.738 0-.262-.085-.551-.135-.847a14.601 14.601 0 00-.441-2.153 19.918 19.918 0 00-2.322-5.535 20.73 20.73 0 00-24.884-8.832c-.926.338-1.829.737-2.703 1.195a20.679 20.679 0 00-2.542 1.627c-.82.599-1.602 1.25-2.338 1.95a22.926 22.926 0 00-2.025 2.398 20.088 20.088 0 00-2.957 5.696 20.479 20.479 0 000 13.054 20.132 20.132 0 002.957 5.704 23.894 23.894 0 002.025 2.399c.74.715 1.524 1.383 2.347 2.001.808.6 1.658 1.144 2.541 1.627.873.458 1.776.855 2.703 1.187a20.766 20.766 0 0024.885-8.833 19.79 19.79 0 002.321-5.526c.2-.706.347-1.426.441-2.153.051-.314.11-.602.136-.848.025-.246 0-.508.05-.729 0-.415.051-.746.068-.991.008-.114.022-.227.043-.339.009.112.009.226 0 .339v1.737c0 .263-.077.56-.111.848a15.94 15.94 0 01-.406 2.178 19.787 19.787 0 01-2.279 5.612 21.058 21.058 0 01-14.218 10.01c-4.716.867-9.587.13-13.836-2.094a22.248 22.248 0 01-2.593-1.695 25.96 25.96 0 01-2.397-2.034 24.049 24.049 0 01-2.068-2.45 20.347 20.347 0 01-3.025-5.815 20.881 20.881 0 010-13.333 20.48 20.48 0 013.025-5.823 23.037 23.037 0 012.068-2.441 24.576 24.576 0 012.397-2.034 23.57 23.57 0 012.593-1.696c.892-.458 1.811-.86 2.754-1.203a21.248 21.248 0 0111.082-.814 21.06 21.06 0 0114.158 9.977 20.03 20.03 0 012.279 5.619c.187.713.323 1.438.407 2.17 0 .322.093.611.11.848v1.729c.029.123.046.247.051.373zm258.031 172.737s24.791-5.933 25.613-6.959l-20.394-52.552a39.403 39.403 0 00-14.132-18.326 38.97 38.97 0 00-9.651-4.865 67.352 67.352 0 00-24.08-3.721l-34.425-1.797a68.293 68.293 0 00-27.164 7.518 54.823 54.823 0 00-25.494 28.082l-15.438 38.584 38.975 8.145 1.483 41.449-5.872 57.189h107.52l-.745-90.653 3.804-2.094z" fill="#E8505B"/><path d="M525.17 313.996c0 .11-6.396 2.212-14.403 4.687-8.007 2.475-14.463 4.383-14.497 4.239-.034-.145 6.388-2.213 14.403-4.688 8.016-2.475 14.464-4.357 14.497-4.238z" fill="#fff" opacity=".3"/><path d="M412.677 277.057a7.15 7.15 0 01-.661-.907c-.39-.602-.991-1.45-1.771-2.467a44.056 44.056 0 00-2.923-3.391 47.575 47.575 0 00-4.033-3.729 45.46 45.46 0 00-4.499-3.162 43.81 43.81 0 00-3.957-2.136c-1.152-.542-2.11-.958-2.779-1.212a5.41 5.41 0 01-1.025-.458c.37.063.734.162 1.084.297.968.313 1.919.678 2.847 1.094a36.705 36.705 0 014.042 2.068 38.762 38.762 0 018.617 6.959 38.026 38.026 0 012.872 3.509 27.865 27.865 0 011.694 2.543c.201.311.366.644.492.992zm-5.075 12.544c.118 0-1.077 12.672-2.686 28.269-1.61 15.596-3 28.226-3.118 28.217-.119-.008 1.076-12.663 2.686-28.268 1.609-15.605 2.999-28.218 3.118-28.218zm84.669-23.462a23.265 23.265 0 01-.551-2.543 48.542 48.542 0 00-1.695-6.069 46.608 46.608 0 00-2.542-5.772 23.037 23.037 0 01-1.203-2.339s.187.186.449.559c.263.373.619.924 1.034 1.627a36.085 36.085 0 012.644 5.79 35.106 35.106 0 011.601 6.162c.127.848.203 1.458.237 1.907.045.223.054.452.026.678zm2.135 44.255a7.513 7.513 0 01-.204-1.246c-.11-.806-.237-1.967-.381-3.391-.28-2.882-.576-6.874-.729-11.299a192.38 192.38 0 01-.067-11.324c.042-1.449.084-2.619.135-3.433.001-.421.044-.841.127-1.254.049.419.066.841.051 1.263v3.39c0 2.899 0 6.9.195 11.308.195 4.407.398 8.408.602 11.29.093 1.382.169 2.543.237 3.39.055.433.066.871.034 1.306z" fill="#263238"/><path d="M442.349 302.994c-9.037.526-18.102.356-27.113-.509v3.526h27.113v-3.017z" fill="#fff"/><path d="M469.326 244.381c.045.175.079.354.102.534.059.381.135.907.237 1.568.169 1.364.407 3.39.601 5.933.407 5.086.763 12.333.848 20.877v.331l-.297-.145c-5.406-2.627-11.464-5.492-17.793-8.645l-30.815-15.427-9.321-4.721-2.541-1.306-.644-.347a1.113 1.113 0 01-.221-.136l.238.093.669.314 2.542 1.229 9.371 4.594 30.993 15.3c6.304 3.153 12.354 6.026 17.793 8.68l-.288.186c-.093-8.536-.39-15.774-.728-20.868-.153-2.543-.356-4.552-.483-5.934a193.9 193.9 0 01-.178-1.568 2.55 2.55 0 01-.085-.542zm-64.741 73.192c-.143.02-.288.02-.432 0l-1.262-.305-4.669-1.221c-3.914-1-9.32-2.373-15.302-3.822a1132.561 1132.561 0 00-15.361-3.594l-4.66-1.068-1.262-.314a1.598 1.598 0 01-.432-.136 1.55 1.55 0 01.449.051l1.279.229c1.11.204 2.711.526 4.694.932 3.957.848 9.405 2.026 15.395 3.476 5.99 1.449 11.388 2.865 15.251 3.95 1.94.534 3.516.983 4.592 1.313l1.246.382c.163.019.323.062.474.127z" fill="#fff" opacity=".3"/><path d="M464.59 237.964c0-.119 2.33 1.102 4.575 4.425a41.423 41.423 0 015.448 14.409c.533 2.798.864 5.631.992 8.477 0 1.305.059 2.542 0 3.704-.06 1.161-.077 2.237-.178 3.221-.102.983-.204 1.847-.288 2.636-.085.788-.238 1.441-.331 1.983a6.57 6.57 0 01-.398 1.695 5.77 5.77 0 01.059-1.695l.178-1.983c.051-.78.102-1.695.153-2.628.05-.932.042-2.043.076-3.187.034-1.144-.06-2.373-.102-3.662a66.158 66.158 0 00-1.042-8.298 45.274 45.274 0 00-5.084-14.223 20.125 20.125 0 00-2.821-3.594 16.425 16.425 0 01-1.237-1.28zm-38.526.246a18.882 18.882 0 01-1.788 2.543 36.47 36.47 0 00-4.024 7.484 50.978 50.978 0 00-2.957 12.181c-.619 4.704-.848 9.959-1.229 15.452-.381 5.493-.296 10.739-.305 15.52-.008 4.781 0 9.078 0 12.714 0 3.637-.093 6.552-.195 8.57a14.69 14.69 0 01-.313 3.144 14.917 14.917 0 01-.204-3.144c-.059-2.06-.127-4.976-.22-8.561-.093-3.586-.212-7.917-.28-12.715-.067-4.797-.084-10.061.204-15.596s.644-10.773 1.338-15.554a48.452 48.452 0 013.305-12.367 31.371 31.371 0 014.448-7.408 11.58 11.58 0 012.22-2.263z" fill="#263238"/><path d="M483.035 309.097a16.265 16.265 0 01-.169-2.806 456.272 456.272 0 01-.127-7.629c0-1.618 0-3.39-.051-5.272-.051-1.881 0-3.941-.11-6.018a9.966 9.966 0 00-2.161-5.933 8.159 8.159 0 00-5.931-2.823 9.317 9.317 0 00-6.244 2.424 10.689 10.689 0 00-3.152 5.501c-.526 2.018-.746 4.044-1.059 5.934-.314 1.89-.577 3.611-.848 5.204-.508 3.187-.94 5.756-1.254 7.536a17.27 17.27 0 01-.576 2.746c-.004-.938.076-1.874.237-2.797.212-1.789.543-4.382.975-7.57.22-1.602.466-3.348.72-5.229.254-1.882.474-3.883 1-6.002a11.436 11.436 0 013.389-5.933 10.163 10.163 0 016.804-2.695 8.966 8.966 0 016.608 3.144 10.662 10.662 0 012.322 6.417c.127 2.178 0 4.187 0 6.086 0 1.898 0 3.653-.068 5.272a419.48 419.48 0 01-.152 7.629c.025.94-.026 1.881-.153 2.814z" fill="#263238"/><path d="M474.859 270.31c-.28 2.966-1.229 6.297-3.288 8.476a11.78 11.78 0 015.465.102c-1.279-2.543-1.491-5.68-1.457-8.561m7.482 19.274c-.161 0-.254-1.424-1.339-3.39a10.49 10.49 0 00-2.465-2.941 9.147 9.147 0 00-4.169-1.992 8.982 8.982 0 00-4.592.466 10.01 10.01 0 00-3.279 1.983c-1.644 1.492-2.186 2.84-2.33 2.764-.144-.077.254-1.501 1.898-3.213a9.738 9.738 0 013.389-2.297 9.01 9.01 0 019.574 1.695 10.093 10.093 0 012.491 3.272c1.042 2.145.898 3.653.822 3.653z" fill="#263238"/><path d="M505.734 385.62c5.084 0 9.557-3.644 11.93-8.095 2.372-4.45 2.982-9.62 3.211-14.663a119.175 119.175 0 00-4.881-39.593l-22.114 3.865 6.025 59.58 5.829-1.094z" fill="#FFBE9D"/><path d="M416.294 393.037l72.002-2.628 17.463-84.398-75.84 4.213-13.625 82.813z" fill="#263238"/><path d="M453.354 308.775l1.085-2.153 5.745-.424s1.465-3.772 9.676-4.153c7.354-.348 7.625 3.39 7.625 3.39h3.965v1.805l-28.096 1.535z" fill="#455A64"/><path d="M493.499 365.837l5.456-1.594a6.657 6.657 0 013.161-.135 6.665 6.665 0 013.389 1.788c1.804 1.78 4.719 4.721 5.134 5.594.61 1.289.61 3.51 0 4.323-.61.814 1.339 5.018 1.093 6.417a8.747 8.747 0 01-1.093 3.39c-.491.585 0 2.543-1.22 4.086-.701.88-1.474 1.7-2.313 2.45 0 0-14.997.703-16.454 0-1.458-.704-4.025-3.391-4.025-3.391s-1.338-2.458.729-2.687l-8.532-3.238a2.027 2.027 0 01-1.237-2.543 1.428 1.428 0 01.754-.847s-3.83-1.212-4.72-1.602c-1.77-.789-2.44-4.908 1.229-4.383 1.932.28 4.55.848 4.55.848s-1.398-2.28.559-3.628c1.186-.847 6.524.178 6.524.178l7.016-5.009v-.017z" fill="#FFBE9D"/><path d="M495.397 388.35a12.71 12.71 0 01-4.432-.67 10.91 10.91 0 01-4.084-1.839c.06-.11 1.847.771 4.237 1.415 2.389.644 4.295.967 4.279 1.094zm-3.254-5.332a115.624 115.624 0 01-13.81-3.526c2.348.373 4.671.891 6.956 1.551a56.822 56.822 0 016.854 1.975zm1.771-5.264a67.47 67.47 0 01-7.49-1.525 66.785 66.785 0 01-7.388-1.958c2.523.366 5.024.876 7.49 1.525a65.373 65.373 0 017.388 1.958zm5.549-6.874a9.455 9.455 0 01-1.923.61l-2.118.551-1.254.306c-.47.122-.956.167-1.441.135a7.274 7.274 0 01-1.406-.229l-1.262-.288-2.119-.508a9.66 9.66 0 01-1.94-.577 9.376 9.376 0 012 .271l2.152.424a25.16 25.16 0 002.601.466 9.529 9.529 0 002.542-.398l2.143-.458a9.015 9.015 0 012.025-.305zm.958 2.874c.051 0 .254.152.415.55.213.542.234 1.141.06 1.696a2.548 2.548 0 01-1 1.339c-.365.237-.636.271-.661.22-.025-.05.847-.576 1.237-1.695a4.656 4.656 0 00-.051-2.11zm-.305 5.789c.101-.051.44.559.389 1.382-.05.822-.44 1.381-.542 1.322-.101-.06.068-.627.102-1.348.034-.72-.068-1.314.051-1.356zm.085 6.298c.11-.043.339.364.228.898-.11.534-.466.848-.559.738-.093-.111.051-.416.127-.848.077-.432.085-.754.204-.788z" fill="#EB996E"/><path d="M501.836 370.533a4.842 4.842 0 01-1.441-.077l-1.542-.195a6.032 6.032 0 00-1.838-.093 4.432 4.432 0 00-1.627.738c-.474.313-.847.661-1.279.898a2.305 2.305 0 01-1.381.466c0-.068.516-.22 1.211-.729a7.478 7.478 0 013.017-1.814 5.402 5.402 0 011.033 0c.348 0 .627.102.924.144l1.533.297c.479.05.948.173 1.39.365zm8.66 15.367c.097-.369.225-.729.381-1.077a8.358 8.358 0 00.601-2.992 8.198 8.198 0 00-.322-2.076c-.169-.746-.516-1.492-.703-2.382a7.442 7.442 0 01.187-2.772 4.95 4.95 0 00-.492-2.729c-.43-.86-.953-1.67-1.559-2.416a95.855 95.855 0 00-1.694-2.094 10.098 10.098 0 00-3.55-2.78 5.782 5.782 0 00-2.983-.449c-.712.093-1.084.288-1.101.246-.017-.043.084-.068.262-.153.271-.121.556-.21.848-.263a5.555 5.555 0 013.126.331 10.043 10.043 0 013.728 2.789 46.229 46.229 0 011.762 2.11 13.34 13.34 0 011.619 2.492 5.29 5.29 0 01.517 2.967 7.603 7.603 0 00-.212 2.645c.161.847.5 1.593.661 2.364a8.41 8.41 0 01.279 2.17 7.716 7.716 0 01-.754 3.052 4.51 4.51 0 01-.601 1.017z" fill="#EB996E"/><path d="M460.074 344.146l-59.115 9.4 2.626-30.87-32.874-6.358-3.999 45.704-.687 10.469a20.46 20.46 0 008.583 18.037 20.426 20.426 0 0018.149 2.755l12.709-4.137 61.954-22.038" fill="#FFBE9D"/><path d="M495.863 337.78a1.706 1.706 0 00-.386-1.384 1.685 1.685 0 00-1.309-.591c-3.33 0-12.328.043-15.505.941-3.931 1.119-18.581 7.4-18.581 7.4l6.211 22.937 22.478.237s8.21-3.772 8.312-5.408a26.09 26.09 0 00-.204-3.06l2.483-1.331c3.694-2.347 1.322-6.84 1.322-6.84s2.542-1.432 2.677-4.001a4.026 4.026 0 00-1.982-3.797s1.016-3.628-.848-4.603c-1.864-.974-5.083.28-5.083.28a1.31 1.31 0 00.415-.78z" fill="#FFBE9D"/><path d="M497.159 338.162c-.22.108-.454.188-.695.237-.449.127-1.118.28-1.94.424-1.652.288-3.948.542-6.482.848a52.75 52.75 0 00-6.422.974c-1.618.382-2.542.848-2.542.848.187-.16.395-.294.619-.398a10.884 10.884 0 011.864-.712 38.722 38.722 0 016.447-1.119c2.542-.272 4.838-.467 6.482-.687 1.644-.22 2.644-.483 2.669-.415zm4.228 4.585a5.29 5.29 0 01-1.584.848 26.122 26.122 0 01-4.092 1.195c-1.636.339-3.118.56-4.237.695a6.34 6.34 0 01-1.754.136 54.094 54.094 0 015.863-1.263c1.619-.348 3.059-.729 4.084-1.06a11.29 11.29 0 011.72-.551zm-.644 7.968a23.998 23.998 0 01-9.862 2.238c0-.127 2.237-.407 4.948-1.026 2.711-.619 4.914-1.297 4.914-1.212zm-1.372 6.806a11.657 11.657 0 01-3.694 1.357c-1.269.377-2.592.54-3.915.483 2.546-.597 5.088-1.21 7.626-1.84h-.017zm-11.727-4.068c0 .051-.228.203-.686.246a2.61 2.61 0 01-2.703-1.924c-.11-.441-.051-.729 0-.729a3.224 3.224 0 003.389 2.407zm-.457 7.103c0 .127-.847.178-1.695-.517-.847-.695-.847-1.577-.703-1.577.144 0 .347.687 1 1.255.652.568 1.398.72 1.398.839zm-2.618-14.427c.051.111-.568.314-1.144-.127s-.559-1.085-.432-1.068c.127.017.271.407.695.712.423.305.864.356.881.483z" fill="#EB996E"/><path d="M460.074 344.146l.178-.093.533-.246 2.085-.924c1.83-.797 4.482-1.941 7.846-3.314 1.694-.687 3.524-1.433 5.558-2.187a20.966 20.966 0 013.219-1 34.116 34.116 0 013.576-.45c2.457-.186 5.084-.271 7.778-.313h3.118c.387-.027.773.052 1.118.229a1.804 1.804 0 01.958 2.042.651.651 0 01-.254.297l-.255.153c-.169.093-.338.169-.508.246a8.383 8.383 0 01-1.067.364c-.028.009-.057.012-.085.009a.208.208 0 01-.081-.026.205.205 0 01-.097-.136.215.215 0 01.024-.161.219.219 0 01.128-.101 23.06 23.06 0 012.796-.619 10.496 10.496 0 012.966-.11c.539.06 1.047.281 1.457.635.382.389.633.887.72 1.424a7.481 7.481 0 01-.194 3.094l-.111-.254c.483.279.907.65 1.246 1.093a4.44 4.44 0 01.644 4.018 5.933 5.933 0 01-2.542 3.069l.085-.289a7 7 0 01.711 3.916 4.505 4.505 0 01-2.118 3.204l-2.482 1.323.11-.204c.059.594.118 1.178.161 1.763 0 .297 0 .585.042.848v.449a1.165 1.165 0 01-.178.492 5.59 5.59 0 01-1.279 1.22c-.458.331-.932.636-1.398.924a59.266 59.266 0 01-5.584 2.925.14.14 0 01-.076 0l-16.361-.246-4.524-.102h-1.593c.135-.011.271-.011.406 0h5.711l16.361.102h-.076a58.816 58.816 0 005.532-2.933c.458-.288.924-.585 1.365-.915a5.097 5.097 0 001.169-1.111.754.754 0 00.127-.305v-.415c0-.28 0-.568-.042-.848 0-.576-.102-1.161-.17-1.746a.211.211 0 01.023-.123.208.208 0 01.087-.089l2.474-1.331a4.069 4.069 0 001.924-2.907 6.64 6.64 0 00-.678-3.653.238.238 0 01.093-.297 5.52 5.52 0 002.372-2.831 3.941 3.941 0 00-.584-3.602 3.802 3.802 0 00-1.093-.975.223.223 0 01-.1-.108.216.216 0 01-.01-.146 7.125 7.125 0 00.186-2.891 2.247 2.247 0 00-.678-1.22 2.302 2.302 0 00-1.22-.518 10.246 10.246 0 00-2.83.102c-.927.146-1.843.35-2.745.61l-.11-.415a7.532 7.532 0 001-.347c.162-.064.321-.137.474-.221.153-.059.297-.22.348-.203a1.699 1.699 0 00-.136-.89 1.517 1.517 0 00-.652-.653 1.693 1.693 0 00-.924-.186h-3.101c-2.711 0-5.312.101-7.761.279a35.228 35.228 0 00-3.533.416c-1.083.237-2.146.56-3.178.966-2.025.737-3.88 1.466-5.566 2.136l-7.863 3.162-2.11.847-.55.212c-.128.076-.212.093-.212.085zm-58.861 9.341a22.96 22.96 0 00-4.364 3.772 22.525 22.525 0 00-2.914 4.984 4.792 4.792 0 01.44-1.695 13.268 13.268 0 012.135-3.594 12.955 12.955 0 013.144-2.747 4.888 4.888 0 011.559-.72z" fill="#EB996E"/><path d="M478.409 170.62a29.877 29.877 0 00-9.475-19.573 29.852 29.852 0 00-20.231-7.957h-1.55c-16.675.94-25.199 15.638-23.792 32.286l2.872 66.758a3.032 3.032 0 001.737 2.603l37.425 17.571-1.161-35.032s16.039-2.467 16.268-18.496c.11-7.764-.941-23.725-2.093-38.16z" fill="#FFBE9D"/><path d="M464.37 227.233a38.893 38.893 0 01-20.988-6.187s4.915 11.544 20.911 10.171l.077-3.984z" fill="#EB996E"/><path d="M472.732 180.58a2.309 2.309 0 01-2.211 2.305 2.18 2.18 0 01-1.615-.542 2.182 2.182 0 01-.741-1.534 2.288 2.288 0 012.203-2.306 2.203 2.203 0 012.364 2.077z" fill="#263238"/><path d="M474.952 178.461c-.288.297-2.017-.992-4.482-.992-2.466 0-4.237 1.229-4.533.924-.136-.127.152-.67.94-1.237a6.248 6.248 0 013.635-1.111 6.052 6.052 0 013.567 1.153c.754.585 1.008 1.127.873 1.263zm-26.435 2.865a2.29 2.29 0 01-2.212 2.305 2.183 2.183 0 01-1.612-.539 2.197 2.197 0 01-.743-1.529 2.277 2.277 0 012.211-2.305 2.173 2.173 0 011.615.536 2.193 2.193 0 01.741 1.532zm2.236-2.458c-.279.296-2.016-.992-4.473-.992s-4.237 1.237-4.542.932c-.127-.135.161-.669.949-1.246a6.312 6.312 0 013.635-1.11 6.001 6.001 0 013.567 1.161c.729.577.992 1.119.864 1.255zm8.888 18.292c0-.145 1.517-.407 3.999-.712.627-.068 1.229-.195 1.331-.619a3.143 3.143 0 00-.416-1.865l-1.847-4.798c-2.541-6.781-4.431-12.434-4.151-12.536.279-.102 2.542 5.349 5.151 12.172.619 1.695 1.203 3.289 1.771 4.823a3.66 3.66 0 01.322 2.475 1.593 1.593 0 01-1.034.915 4.44 4.44 0 01-1.076.145c-2.491.127-4.041.135-4.05 0zm-7.252 1.686c.398 0 .398 2.653 2.686 4.552 2.287 1.899 5.083 1.619 5.151 1.992 0 .169-.635.517-1.838.551a6.69 6.69 0 01-4.305-1.509 5.801 5.801 0 01-2.076-3.823c-.101-1.119.195-1.78.382-1.763zm-.992-29.607c-.245.669-2.702.347-5.592.686-2.889.339-5.227 1.128-5.617.526-.17-.288.237-.916 1.186-1.56a9.224 9.224 0 014.16-1.449 9.311 9.311 0 014.372.525c1.059.424 1.593.924 1.491 1.272zm22.665 2.085c-.441.559-2.135 0-4.177-.059-2.042-.06-3.762.372-4.16-.212-.178-.289.101-.848.847-1.374a6.002 6.002 0 016.71.221c.729.576.966 1.153.78 1.424z" fill="#263238"/><path d="M425.759 187.242c-.271-.118-11.015-3.28-10.676 7.68.339 10.96 11.26 8.374 11.269 8.061.008-.314-.593-15.741-.593-15.741z" fill="#FFBE9D"/><path d="M423.844 198.906c-.051 0-.187.135-.509.296a1.91 1.91 0 01-1.423.068c-1.169-.39-2.203-2.195-2.313-4.17-.056-.941.1-1.883.457-2.755a2.205 2.205 0 011.39-1.509.976.976 0 011.144.492c.152.305.093.525.144.542.051.017.237-.195.135-.644a1.289 1.289 0 00-.457-.669 1.438 1.438 0 00-1.059-.255 2.698 2.698 0 00-1.949 1.823 6.5 6.5 0 00-.568 3.077c.136 2.203 1.331 4.238 2.923 4.645a2.033 2.033 0 001.737-.339c.331-.314.382-.56.348-.602z" fill="#EB996E"/><path d="M432.961 154.66l45.668 1.017c-1.415-3.153-3.957-5.679-6.71-7.773a35.75 35.75 0 00-20.691-7.484c-7.448-.128-22.622 8.95-28.02 14.096-4.321 4.11-4.287 7.628-4.287 7.628-.686 5.934 2.627 12.664 3.948 18.478.678 3.001 1.992 12.087 1.992 12.087 2.541 0 3.448-2.017 3.067-4.509l-.466-9.765s8.557-6.085 4.499-17.232c-.644-.813-2.034-4.891 1-6.543z" fill="#263238"/><path d="M442.535 189.327a.288.288 0 01-.322-.237.289.289 0 01.203-.347.29.29 0 01.331.237.303.303 0 01-.212.347zm4.711-1.059a.322.322 0 01-.339-.28.32.32 0 01.025-.235.32.32 0 01.178-.155.347.347 0 01.136.67zm3.169-.076c-.153 0-.297-.161-.331-.407-.034-.246.068-.449.22-.475.153-.025.288.17.322.415.034.246-.067.45-.211.467zm-5.593 4.094c-.144 0-.271-.077-.271-.178 0-.102.127-.17.271-.17.144 0 .272.077.272.17 0 .093-.102.178-.272.178zm4.339-1.009a.298.298 0 01-.297-.288.292.292 0 01.138-.293.28.28 0 01.108-.038.307.307 0 01.297.288.299.299 0 01-.246.331zm22.461-2.619a.295.295 0 01-.322-.255.29.29 0 01.001-.106.271.271 0 01.533.005.3.3 0 01-.03.223.287.287 0 01-.182.133zm3.211-.288a.315.315 0 01-.305-.314.276.276 0 01.062-.142.276.276 0 01.282-.095.283.283 0 01.207.214.279.279 0 01-.102.279.286.286 0 01-.144.058zm-6.041.364a.255.255 0 01-.194-.024.245.245 0 01-.119-.154.26.26 0 01.22-.288.262.262 0 01.313.186.246.246 0 01-.053.185.249.249 0 01-.167.095zm2.373 3.213a.298.298 0 01-.373-.178.27.27 0 01.122-.387.264.264 0 01.222 0 .276.276 0 01.147.166.308.308 0 01-.118.399zm2.736-.543a.262.262 0 01-.203-.297.253.253 0 01.322-.144.251.251 0 01.162.101.249.249 0 01.041.188.262.262 0 01-.322.152z" fill="#EB996E"/><path d="M422.912 155.16a13.52 13.52 0 012.571-11.759 13.498 13.498 0 0110.926-5.041c2.135.093 4.237.695 6.372.466 3.957-.432 7.007-3.602 10.676-5.145a13.914 13.914 0 0116.428 4.933c1.39 2.077 2.297 4.637 4.432 5.933 1.838 1.136 4.16 1.043 6.227 1.696 4.186 1.263 7.05 5.704 6.829 10.069a11.96 11.96 0 01-7.295 10.07 14.603 14.603 0 01-12.624-.847c-3.449-1.916-6.533-5.188-10.481-5.086-4.084.119-7.626 3.975-11.659 3.178-2.101-.423-3.719-2.042-5.261-3.534-1.542-1.492-3.305-3.009-5.448-3.136-2.144-.127-3.254 2.814-2.483 4.814l-9.21-6.552" fill="#263238"/><path d="M477.748 149.862l-.076.161c-.059.102-.136.254-.263.441a7.647 7.647 0 01-1.313 1.492 8.049 8.049 0 01-2.72 1.568 7.764 7.764 0 01-4.143.254 8.241 8.241 0 01-4.372-2.492c-1.246-1.373-1.991-3.204-3.152-4.814a6.445 6.445 0 00-2.211-2.009 6.555 6.555 0 00-3.034-.661 6.883 6.883 0 00-3.109.847 5.783 5.783 0 00-2.288 2.357c-.551 1-.949 2.102-1.61 3.085a3.824 3.824 0 01-2.94 1.772 5.643 5.643 0 01-3.185-.924 11.75 11.75 0 01-2.415-2.043c-1.415-1.424-2.805-2.84-4.533-3.23a5.768 5.768 0 00-4.592 1.085 7.897 7.897 0 00-2.542 3.12 12.935 12.935 0 00-.949 2.941c-.17.847-.246 1.492-.297 1.941a4.994 4.994 0 01-.101.678.532.532 0 010-.178v-.509c.035-.659.111-1.316.228-1.966.155-1.035.44-2.046.848-3.009a8.1 8.1 0 012.541-3.272 6.083 6.083 0 012.3-1.117 6.081 6.081 0 012.555-.07c1.873.407 3.322 1.899 4.728 3.298.722.77 1.546 1.437 2.449 1.983a5.29 5.29 0 002.965.848 3.384 3.384 0 002.542-1.611c.619-.907 1.017-2 1.585-3.043a6.292 6.292 0 012.465-2.543 7.32 7.32 0 013.313-.847 6.317 6.317 0 015.584 2.856c1.194 1.695 1.906 3.501 3.092 4.815a8.012 8.012 0 004.169 2.432 7.617 7.617 0 003.999-.178 8.137 8.137 0 002.686-1.474 10.42 10.42 0 001.796-1.984zm8.278.161c.107.271.17.557.186.848a7.1 7.1 0 01-.228 2.449 8.474 8.474 0 01-1.695 3.23 9.94 9.94 0 01-3.609 2.628 14.903 14.903 0 01-7.973.906 21.158 21.158 0 01-2.39-.483 3.132 3.132 0 01-.847-.279c0-.077 1.246.237 3.279.449a15.495 15.495 0 007.753-.992 9.89 9.89 0 003.482-2.543 8.494 8.494 0 001.695-3.043 9.8 9.8 0 00.347-3.17z" fill="#455A64"/><path d="M408.051 326.634a9.19 9.19 0 001.915 4.747c.982 1.271 2.974 2.543 4.575 2.433a6.988 6.988 0 006.16-3.094c1.957-3.111 2.431-9.578.847-13.401-1.076-2.628-3.499-5.086-6.338-5.137-3.728-.093-6.066 2.602-6.863 5.332" fill="#A7A7A7"/><path d="M408.39 317.514a5.697 5.697 0 01.694-1.831 7.495 7.495 0 011.398-1.831 6.549 6.549 0 012.636-1.551 6.64 6.64 0 011.77-.28 5.345 5.345 0 011.941.254 7.574 7.574 0 013.465 2.484 10.076 10.076 0 012.033 4.238c.359 1.647.488 3.336.382 5.018-.178 2.661-.695 5.298-2.169 7.315a6.523 6.523 0 01-2.813 2.127 7.673 7.673 0 01-3.178.534 4.801 4.801 0 01-2.287-.567 7.638 7.638 0 01-1.695-1.196 8.886 8.886 0 01-2.465-4.848 4.366 4.366 0 01-.051-.559v-.187c.164.94.449 1.854.847 2.721a8.761 8.761 0 001.881 2.653 6.942 6.942 0 001.695 1.119 4.48 4.48 0 002.118.5 6.773 6.773 0 005.634-2.543c1.364-1.89 1.89-4.484 2.059-7.078.178-3.39-.381-6.738-2.288-8.984a7.339 7.339 0 00-3.262-2.391 4.879 4.879 0 00-1.821-.262 6.389 6.389 0 00-1.695.245 6.23 6.23 0 00-2.542 1.424 7.9 7.9 0 00-1.423 1.738c-.321.562-.61 1.142-.864 1.738z" fill="#263238"/><path d="M406.068 326.795a9.196 9.196 0 001.915 4.755c.983 1.272 2.974 2.543 4.576 2.424a6.96 6.96 0 006.159-3.085c1.949-3.111 2.432-9.578.848-13.401-1.076-2.627-3.491-5.086-6.33-5.136-3.728-.094-6.066 2.602-6.863 5.331" fill="#A7A7A7"/><path d="M406.39 317.683a5.685 5.685 0 01.695-1.831 7.278 7.278 0 011.398-1.831 6.47 6.47 0 012.635-1.551 6.607 6.607 0 011.771-.279 5.147 5.147 0 011.94.254 7.582 7.582 0 013.466 2.483 10.08 10.08 0 012.033 4.239c.36 1.646.486 3.336.373 5.017-.17 2.654-.686 5.298-2.161 7.315a6.424 6.424 0 01-2.813 2.119 7.673 7.673 0 01-3.177.543 4.817 4.817 0 01-2.288-.568 7.402 7.402 0 01-1.694-1.195 8.598 8.598 0 01-1.873-2.789 8.162 8.162 0 01-.593-2.059 4.398 4.398 0 01-.051-.56.492.492 0 010-.195c.163.943.448 1.86.848 2.729a8.598 8.598 0 001.881 2.654c.507.453 1.078.83 1.694 1.118.655.338 1.382.51 2.118.501a6.783 6.783 0 005.635-2.543c1.364-1.891 1.889-4.484 2.05-7.087.187-3.348-.373-6.73-2.287-8.976a7.273 7.273 0 00-3.254-2.39 4.862 4.862 0 00-1.822-.263 6.51 6.51 0 00-1.694.237 6.343 6.343 0 00-2.542 1.433 7.887 7.887 0 00-1.424 1.738 17.016 17.016 0 00-.864 1.737z" fill="#263238"/><path d="M409.66 316.725a4.373 4.373 0 00-4.549 2.628 7.543 7.543 0 000 5.526c.29.922.773 1.771 1.414 2.492a3.695 3.695 0 002.542 1.23 4.394 4.394 0 003.5-2.069 7.906 7.906 0 001.194-6.501c-.389-1.466-1.466-2.975-2.982-3.009" fill="#A7A7A7"/><path d="M410.771 317.022h.33c.326.042.64.148.923.314a4.51 4.51 0 011.941 2.915 8.075 8.075 0 01-.526 5.196 6.772 6.772 0 01-1.897 2.492 3.673 3.673 0 01-3.271.78 4.558 4.558 0 01-2.618-2.136 9.526 9.526 0 01-1.085-2.924 6.53 6.53 0 01.848-5.086 4.546 4.546 0 012.974-1.932 3.01 3.01 0 01.966 0c.11.014.218.043.322.084a6.434 6.434 0 00-1.263.085 4.482 4.482 0 00-2.728 1.89 6.275 6.275 0 00-.703 4.857 9.304 9.304 0 001.059 2.789 4.181 4.181 0 002.364 1.932 3.245 3.245 0 002.88-.695 6.328 6.328 0 001.797-2.331 7.82 7.82 0 00.593-4.941 4.51 4.51 0 00-1.695-2.848 3.39 3.39 0 00-1.211-.441z" fill="#263238"/><path d="M413.931 330.66c-.059 0-.153-.262-.449-.601a3.073 3.073 0 00-1.441-.933 7.75 7.75 0 00-1.779-.271c-.474 0-.771-.076-.779-.136-.009-.059.288-.135.771-.178a5.09 5.09 0 011.914.161c.645.193 1.2.607 1.568 1.17.271.415.246.788.195.788zm.669-15.087c.042.042-.127.305-.525.618a4.169 4.169 0 01-1.788.78 4.036 4.036 0 01-1.94-.11c-.483-.153-.737-.339-.712-.39.842.121 1.695.144 2.542.068a10.838 10.838 0 002.423-.966zM181.149 167.315c.102-3.688-3.304-6.544-6.778-7.892-3.474-1.348-7.253-1.865-10.32-3.924-2.711-1.831-4.533-4.679-6.829-7.01a22.729 22.729 0 00-22.165-5.967 22.732 22.732 0 00-16.065 16.401c-1.313 5.264-.415 11.477 3.729 14.969 4.812 4.06 11.938 3.153 18.097 1.899 6.16-1.255 13.142-2.543 18.285 1.11 3.101 2.187 4.88 5.739 6.778 9.019 1.898 3.28 4.279 6.645 7.863 7.883 3.584 1.237 8.473-.899 8.6-4.696" fill="#263238"/><path d="M180.903 169.341c-.407 3.102 1.83 5.865 4.059 8.052 2.228 2.187 4.744 4.501 5.143 7.629.457 3.61-2.186 7.179-1.415 10.739.483 2.263 2.245 4.009 3.313 6.06a12.9 12.9 0 01.652 9.494c-.915 3.111-2.381 10.078-4.55 12.494-5.99 6.705-15.522 12.485-24.275 14.494-8.752 2.009-17.852 2.026-26.816 1.475-7.337-.458-15.785-.119-21.902-10.222-3.169-5.23-4.737-12.189-6.414-18.063-1.458-5.086-2.711-10.494-1.203-15.537.847-2.941 2.652-5.552 3.516-8.476 1.084-3.671.686-7.629 1.118-11.418a26.194 26.194 0 0125.208-23.222 26.17 26.17 0 0112.073 2.532" fill="#263238"/><path d="M115.645 182.038c.687-10.544 7.694-23.454 18.192-22.326l32.755 8.366a6.173 6.173 0 015.516 6.281l-3.685 79.057.228.051s-7.464 22.301-29.129 15.486c-4.296-1.347-6.253-6.052-7.109-10.883h-.22v-1.695a51.856 51.856 0 01-.127-10.858c-.06-6.383-.051-9.002-.06-8.943-.008.059-13.454-2.263-16.2-19.834-1.423-8.671-.923-22.996-.161-34.702z" fill="#FFBE9D"/><path d="M120.924 192.625a2.237 2.237 0 002.161 2.271 2.146 2.146 0 002.114-1.198c.126-.259.2-.54.216-.827a2.265 2.265 0 00-2.169-2.281 2.144 2.144 0 00-1.591.527 2.17 2.17 0 00-.731 1.508zm-2.186-3.136c.271.296 1.983-.958 4.406-.95 2.423.009 4.194 1.229 4.465.933.127-.136-.161-.662-.932-1.23a6.226 6.226 0 00-3.567-1.11 5.994 5.994 0 00-3.516 1.127c-.746.568-.975 1.102-.856 1.23zm26.003 3.136a2.245 2.245 0 002.169 2.271c.287.025.575-.009.848-.099a2.13 2.13 0 001.261-1.1c.126-.258.198-.539.213-.827a2.265 2.265 0 00-2.161-2.28 2.154 2.154 0 00-2.33 2.035zm-2.186-2.628c.28.297 1.991-.966 4.415-.949 2.423.017 4.194 1.229 4.456.932.127-.135-.152-.669-.932-1.229a6.078 6.078 0 00-3.567-1.11 5.876 5.876 0 00-3.507 1.127c-.746.568-1 1.102-.865 1.229zm-8.837 17.961c0-.136-1.491-.398-3.931-.72-.619-.068-1.203-.187-1.314-.611a3.166 3.166 0 01.424-1.839l1.839-4.704c2.541-6.705 4.405-12.223 4.134-12.325-.271-.101-2.542 5.256-5.083 11.96-.616 1.65-1.203 3.23-1.763 4.738a3.584 3.584 0 00-.33 2.433 1.574 1.574 0 001.017.907c.342.092.695.14 1.05.144 2.415.136 3.949.153 3.957.017z" fill="#263238"/><path d="M131.981 236.642a44.667 44.667 0 0023.529-6.222s-5.931 12.147-23.512 10.46l-.017-4.238zm2.737-22.844a4.358 4.358 0 013.914-1.61 4.022 4.022 0 012.754 1.483 2.542 2.542 0 01.178 2.891 2.93 2.93 0 01-3.177.796 9.196 9.196 0 01-3.093-1.856 2.642 2.642 0 01-.686-.72.853.853 0 010-.899" fill="#EB996E"/><path d="M140.844 209.653c-.39 0-.398 2.603-2.661 4.467-2.262 1.865-5.083 1.568-5.083 1.933 0 .169.627.517 1.813.551a6.57 6.57 0 004.236-1.466 5.73 5.73 0 002.059-3.747c.11-1.102-.178-1.755-.364-1.738zm.652-23.902c.237.661 2.661.356 5.499.703 2.838.348 5.143 1.127 5.524.534.17-.28-.228-.898-1.152-1.543a9.333 9.333 0 00-4.092-1.441 9.197 9.197 0 00-4.305.501c-1.076.415-1.601.932-1.474 1.246zm-21.86-3.272c.432.551 2.102 0 4.11-.043 2.008-.042 3.702.382 4.101-.195.169-.279-.102-.847-.848-1.356a5.929 5.929 0 00-6.609.195c-.703.56-.923 1.128-.754 1.399z" fill="#263238"/><path d="M178.853 225.869a15.592 15.592 0 01-18.547-17.25c.542-4.314 2.872-8.705 1.372-12.782-1.974-5.399-9.54-7.06-11.548-12.451-1.169-3.128-.119-6.781-1.44-9.867-1.246-2.882-4.279-4.543-7.236-5.611-2.957-1.068-6.118-1.805-8.6-3.738-2.483-1.933-4.025-5.569-2.423-8.273a166.647 166.647 0 0138.373 9.324c2.864 1.068 5.872 2.356 7.566 4.899 1.796 2.704 1.695 6.188 1.559 9.417l-2.211 47.34" fill="#263238"/><path d="M177.751 231.912c.105-.044.202-.104.288-.178l.78-.602a50.804 50.804 0 002.906-2.407 30.524 30.524 0 004.126-4.348 16.112 16.112 0 003.288-7.23 11.029 11.029 0 00-2.262-9.24 35.38 35.38 0 00-4.093-3.492 9.542 9.542 0 01-3.194-4.357c-1.296-3.577-.72-7.73-1.22-11.968a23.822 23.822 0 00-4.982-12.07 16.413 16.413 0 00-5.202-4.238 32.388 32.388 0 00-6.143-2.077 14.302 14.302 0 01-5.397-2.653 21.425 21.425 0 01-3.915-4.323c-2.203-3.136-3.838-6.476-5.931-9.256a19.935 19.935 0 00-3.465-3.73 13.234 13.234 0 00-4.101-2.229 8.727 8.727 0 00-7.804.772 7.196 7.196 0 00-2.77 5.263 5.288 5.288 0 001.059 3.62c.205.26.444.491.712.686.186.127.279.195.288.178a1.969 1.969 0 00-.237-.246 3.606 3.606 0 01-.636-.72 5.172 5.172 0 01-.847-3.501 6.889 6.889 0 012.72-4.924 8.299 8.299 0 017.371-.611c1.42.49 2.743 1.227 3.906 2.179a19.934 19.934 0 013.321 3.594c2.034 2.737 3.635 6.069 5.872 9.323a21.548 21.548 0 004.033 4.476 15.007 15.007 0 005.634 2.814 31.127 31.127 0 016.008 2.034 15.54 15.54 0 014.965 4.06 23.09 23.09 0 014.821 11.706c.517 4.103-.077 8.307 1.305 12.121.68 1.84 1.87 3.449 3.431 4.637a34.34 34.34 0 014.042 3.39 10.454 10.454 0 012.202 8.731 15.909 15.909 0 01-3.084 7.06 32.444 32.444 0 01-3.99 4.383c-1.195 1.11-2.161 1.941-2.805 2.542a9.579 9.579 0 00-1 .831z" fill="#455A64"/><path d="M180.962 234.09c3.61-3.492 9.769-.457 12.803 3.552 3.033 4.009 5.176 9.163 9.777 11.18 4.601 2.017 10.574.28 14.404 3.492 5.321 4.425 2.33 14.673 8.091 18.512 2.28 1.535 5.296 1.475 7.736 2.738 5.753 2.967 5.685 11.087 4.796 17.504-1.246 9.001-2.618 18.334-7.583 25.937-4.965 7.603-14.633 12.969-23.224 10.036-8.261-2.823-12.506-11.748-15.861-19.809l-13.955-33.456c-2.686-6.45-5.406-13.002-6.279-19.936-.872-6.934.297-14.41 4.711-19.843" fill="#263238"/><path d="M183.275 226.403c2.618-.323 4.627 2.898 3.932 5.45-.695 2.551-3.135 4.238-5.635 5.086a8.398 8.398 0 01-4.346.508 4.297 4.297 0 01-3.296-2.653 2.488 2.488 0 01-.077-1.896 2.486 2.486 0 011.28-1.401c1.695-1.077 2.737-1.924 4.101-2.679 2.084-1.152 1.957-1.305 4.041-2.449m-60.36 28.302l10.192-7.722 38.391-2.458 1.542 5.145-12.489 77.956 9.854 93.001h-53.557l6.067-165.922z" fill="#E8505B"/><path d="M164.025 387.595c-1.229-1.305-3.237-3.111-5.025-3.145-12.827-.279-25.918-1.568-38.746-1.847l-1.025 38.007c3.067-5.416 5.973-11.019 6.778-17.207.356-2.695.805-5.933 3.262-7.069 1.39-.653 3.025-.398 4.525-.102 4.634.916 9.235 2.119 13.946 2.408 4.711.288 9.651-.39 13.607-2.967a8.346 8.346 0 003.254-3.518 4.326 4.326 0 00-.576-4.56z" fill="#000" opacity=".3"/><path d="M131.227 256.239l-1.195-11.146a3.535 3.535 0 01.789-2.615 3.544 3.544 0 012.414-1.276l35.331-3.196a1.697 1.697 0 011.252.42 1.711 1.711 0 01.57 1.191l.398 13.265-10.235 17.368-10.515 3.39h-12.861l-7.397-7.899 1.449-9.502z" fill="#E8505B"/><path d="M165.567 248.627l-1.415-.144a24.342 24.342 0 00-3.847-.068 38.315 38.315 0 00-5.659.848c-2.11.441-4.406 1.068-6.838 1.695a45.576 45.576 0 01-6.956 1.238 18 18 0 01-5.77-.39 12.174 12.174 0 01-3.593-1.501 8.646 8.646 0 01-.847-.618c-.186-.161-.28-.246-.263-.255.017-.008.424.28 1.212.729a13.129 13.129 0 003.584 1.34c1.86.39 3.77.487 5.66.288a47.907 47.907 0 006.888-1.263c2.423-.593 4.728-1.204 6.855-1.628a36.074 36.074 0 015.727-.729 21.17 21.17 0 013.889.212c.352.047.7.115 1.043.204.211-.009.338.025.33.042z" fill="#263238"/><path d="M132.066 250.373c-.949 2.602-.975 5.832.949 7.824 1.559 1.627 4.075 2.034 6.286 1.593a20.018 20.018 0 006.143-2.763c4.864-2.899 9.812-5.891 15.336-7.12.362-.047.704-.191.991-.415a.648.648 0 00.155-.74.648.648 0 00-.155-.218.936.936 0 00-.457-.136c-4.889-.483-9.744.899-14.531 1.975-4.787 1.077-9.913 1.831-14.531.17" fill="#000" opacity=".3"/><path d="M138.818 240.846c-.5.268-.918.667-1.211 1.153-.559.898-.525 2.415-.483 4.06.093 3.297.635 5.933.508 5.933a6.025 6.025 0 01-.483-1.695 26.926 26.926 0 01-.466-4.238c-.03-.789-.013-1.579.051-2.365a4.051 4.051 0 01.61-1.873c.239-.385.583-.694.992-.89.296-.111.474-.111.482-.085zm9.337 9.688a51.23 51.23 0 00-.254-5.399c-.407-2.958-1.39-5.205-1.254-5.255.32.436.563.923.72 1.441.464 1.211.791 2.47.975 3.755.183 1.282.22 2.582.11 3.873a4.848 4.848 0 01-.297 1.585zm11.38-11.587c.316.384.545.832.669 1.314a9.22 9.22 0 01.466 3.535 9.095 9.095 0 01-.932 3.441c-.184.465-.474.88-.847 1.212a11.675 11.675 0 00.635-9.502h.009z" fill="#263238"/><path d="M109.985 259.68s-12.048 8.078-15.25 22.657c-2.492 11.46-9.32 71.989-9.32 71.989l-11.888 23.25 7.812 18.546a28.453 28.453 0 0018.725-5.357l5.244-3.806 9.6-14.291-4.923-112.988z" fill="#F1F1F1"/><path d="M130.405 248.992l-20.42 10.688-4.821 15.851-4.296 45.924 8.084 53.85-14.184 45.119 24.461.186.585-26.454 2.44-85.602 2.398-54.536 5.753-5.026z" fill="#F1F1F1"/><path d="M120.517 320.353a4.214 4.214 0 01-.381-.636c-.246-.466-.585-1.085-1.017-1.873-.432-.788-.847-1.882-1.364-3.085-.246-.611-.457-1.289-.703-1.984-.246-.695-.517-1.449-.729-2.254-1.923-6.341-3.194-15.503-2.923-25.607 0-.788.059-1.56.11-2.331v-.136l.127-.051 3.576-1.5-.051.373-3.575-2.873-.077-.06v-.084a30.97 30.97 0 011.627-10.223c.898-2.992 1.881-5.56 2.745-7.679a98.878 98.878 0 012.152-4.9l.627-1.279c.072-.15.154-.294.246-.433-.04.162-.099.319-.178.466l-.568 1.306a159.963 159.963 0 00-2.033 4.933c-.83 2.119-1.779 4.704-2.644 7.688a31.317 31.317 0 00-1.55 10.087l-.085-.153 3.584 2.865.28.229-.331.136-3.567 1.525.136-.186a66.284 66.284 0 00-.11 2.305c-.263 10.062.949 19.182 2.787 25.514.195.805.458 1.542.687 2.246.228.704.432 1.373.677 1.983.5 1.213.89 2.272 1.288 3.103l.932 1.907c.115.214.217.435.305.661zm-16.03 32.168s-.077-.229-.195-.67l-.483-1.924a61.464 61.464 0 01-.686-3.069c-.238-1.203-.551-2.542-.788-4.085-.238-1.543-.56-3.187-.788-4.993a262.505 262.505 0 01-.67-5.747 145.89 145.89 0 01-.618-13.265c0-4.713.279-9.197.661-13.257.228-2.034.423-3.967.703-5.755.28-1.789.525-3.467.796-4.984s.56-2.89.848-4.086c.288-1.195.491-2.229.703-3.068.212-.839.364-1.441.491-1.924.127-.483.187-.661.195-.661a4.085 4.085 0 01-.11.686l-.407 1.941c-.186.848-.415 1.874-.627 3.077-.211 1.204-.516 2.543-.745 4.086-.229 1.542-.526 3.187-.737 4.984-.212 1.797-.449 3.712-.661 5.738a158.12 158.12 0 00-.627 13.223c-.017 4.696.237 9.171.576 13.223.212 2.026.381 3.95.635 5.747.255 1.797.483 3.458.729 4.984.246 1.526.508 2.882.72 4.086.212 1.203.432 2.237.619 3.076.186.84.305 1.467.398 1.95.048.226.071.456.068.687zm5.524 41.338a8.578 8.578 0 01-.992 2.051 33.605 33.605 0 01-6.956 8.477 9.324 9.324 0 01-1.813 1.373 15.04 15.04 0 011.601-1.602 48.357 48.357 0 003.703-4.018 47.818 47.818 0 003.203-4.416c.373-.651.792-1.274 1.254-1.865z" fill="#263238"/><path d="M203.873 258.375a28.096 28.096 0 0117.267 20.004c6.685 29.463 18.115 68.657 18.301 81.304.221 16.105-6.778 27.124-16.005 29.166-7.269 1.602-73.137-2-73.137-2l-3.084-24.581 53.379-7.858-7.304-40.83 7.227-56.545 3.356 1.34z" fill="#F1F1F1"/><path d="M200.483 257.061l-14.751-6.035-15.547-9.112-.094 2.67a15.623 15.623 0 011.847 10.807L159 322.921l2.932 49.34 6.024 48.315h46.779l-21.479-50.535 7.549-68.132-.322-44.848z" fill="#F1F1F1"/><path d="M214.15 389.256l-.322.051-.94.085c-.848.093-2.059.085-3.652.127-3.169 0-7.778-.068-13.506-.254-11.472-.39-27.426-1.153-45.448-2.195h-.178v-.178c-.364-2.925-.754-6.01-1.144-9.138-.669-5.306-1.313-10.468-1.932-15.418v-.204h.204l40.737-5.933 11.964-1.695 3.211-.441.847-.102h.288c-.09.035-.184.058-.279.068l-.848.136-3.202.508-11.939 1.831-40.762 5.993.178-.237c.627 4.95 1.279 10.112 1.94 15.409.398 3.137.779 6.222 1.144 9.146l-.204-.195c18.014 1.06 33.976 1.882 45.432 2.34 5.727.229 10.328.356 13.497.39 1.584 0 2.821 0 3.643-.043l.941-.051h.33z" fill="#263238"/><path d="M192.824 309.486c.061.144.101.295.119.45l.254 1.305c.22 1.204.517 2.84.847 4.823.72 4.136 1.695 9.748 2.779 15.944 1.085 6.196 1.966 11.816 2.661 15.952.313 2.001.567 3.645.754 4.849l.186 1.322c.019.155.019.311 0 .466a1.757 1.757 0 01-.127-.449c-.068-.348-.152-.78-.263-1.314-.22-1.195-.525-2.831-.898-4.815-.737-4.077-1.694-9.713-2.779-15.943a1172.709 1172.709 0 01-2.652-15.953c-.305-2-.559-3.644-.745-4.848a88.234 88.234 0 00-.178-1.331 3.21 3.21 0 01.042-.458zm-15.853-62.817s0 .051.06.161l.135.5c.11.432.297 1.077.475 1.916a60.328 60.328 0 011.135 7.298c.344 3.685.441 7.389.288 11.087-.153 4.238-.593 8.874-1.229 13.816v.153h-.152l-4.838.898.161-.297c.299.772.559 1.559.779 2.357 1.576 5.73.848 11.527-.55 16.376a51.424 51.424 0 01-5.66 12.206c-2.017 3.263-3.83 5.78-5.084 7.518l-1.508 2-.39.509c-.084.11-.135.17-.144.161a.99.99 0 01.11-.186l.356-.534 1.39-2.035c1.211-1.763 2.991-4.306 4.956-7.577a52.383 52.383 0 005.584-12.181c1.398-4.797 2.059-10.519.517-16.105-.212-.805-.492-1.585-.763-2.314l-.093-.254h.263l4.821-.89-.178.186c.644-4.933 1.11-9.578 1.279-13.773.172-3.674.11-7.354-.186-11.02a67.579 67.579 0 00-.992-7.264c-.152-.847-.321-1.491-.398-1.932 0-.204-.076-.365-.101-.5a1.785 1.785 0 01-.043-.28z" fill="#263238"/><path d="M176.971 315.937v-10.774s.136-2.661-2.101-2.102c-2.237.56-1.822 4.756-1.822 4.756s-.415 16.376.56 16.232c.974-.145 1.355-1.399 1.355-1.399v-6.298l2.008-.415z" fill="#E8505B"/><path d="M186.274 316.607a38.615 38.615 0 01-5.77.22 38.615 38.615 0 01-5.77-.22 38.483 38.483 0 015.77-.221 38.483 38.483 0 015.77.221zm21.31-51.841c-.39.176-.792.323-1.203.441a27.44 27.44 0 00-3.203 1.39 24.868 24.868 0 00-8.659 7.374 17.695 17.695 0 00-1.695 2.772c-.425.92-.768 1.876-1.025 2.856a27.989 27.989 0 00-.847 5.086 48.71 48.71 0 00-.153 3.492 8.82 8.82 0 010 1.28 5.51 5.51 0 01-.144-1.28 30.795 30.795 0 010-3.517 26.19 26.19 0 01.771-5.171 17.31 17.31 0 011.025-2.933 18.473 18.473 0 011.695-2.848 23.929 23.929 0 018.879-7.399 22.04 22.04 0 013.279-1.272c.415-.14.844-.231 1.28-.271zm-189.876 89.56l77.06 28.556 64.961 9.935-77.238-37.669-64.783-.822z" fill="#263238"/><path d="M50.684 385.12a32.767 32.767 0 00-4.084-11.68 8.476 8.476 0 01-1.05-2.195 2.546 2.546 0 01.432-2.306c.991-1.076 2.796-.593 4.016.22a14.103 14.103 0 015.185 7.265 42.291 42.291 0 011.695 8.917" fill="#FFBE9D"/><path d="M80.72 377.754h-3.83a7.428 7.428 0 00-3.389-1.932 2.656 2.656 0 00-2.542.983c1.695-2.823 3.559-5.933 3.915-6.781.686-1.695-.847-2.899-3.313-2.899s-13.379 15.452-13.379 15.452 6.779-12.426 7.431-14.325c1.644-4.746-3.55-5.085-5.431-2.814-2.339 2.848-11.786 17.139-11.786 17.139s-1.796 2.899-.559 5.662c1.237 2.764 4.83 1.696 4.83 1.696a4.64 4.64 0 002.541 3.839c2.763 1.535 6.406-.245 6.406-.245l14.099 3.17 5.083-.509a15.651 15.651 0 0013.93-13.291l-14.006-5.145z" fill="#FFBE9D"/><path d="M71.222 376.618c.16.094-1.695 3.052-4.152 6.586-1.22 1.772-2.347 3.391-3.177 4.493-.419.641-.898 1.24-1.432 1.788a11.68 11.68 0 011.17-1.966 245.014 245.014 0 013.075-4.56c1.22-1.772 2.338-3.391 3.152-4.51l.983-1.347c.11-.175.237-.336.38-.484zm-.848 15.732c.34-.808.761-1.58 1.255-2.305a670.67 670.67 0 013.32-5.383c.653-1.051 1.28-2.051 1.789-2.975a3.387 3.387 0 00.313-2.61 6.408 6.408 0 00-1.203-2.247s.229.119.542.458a4.39 4.39 0 01.958 1.695 3.675 3.675 0 01-.246 2.891c-.508.957-1.127 1.958-1.77 3.009a199.75 199.75 0 01-3.44 5.314 19.18 19.18 0 01-1.517 2.153z" fill="#EB996E"/><path d="M77.789 393.757c.142-.767.396-1.51.754-2.203l1.008-2.297c.42-.921.766-1.873 1.034-2.849a3.388 3.388 0 00-.45-2.754 2.608 2.608 0 00-1.008-.721 2.753 2.753 0 00-1.05-.288 4.225 4.225 0 00-1.517.526 1.8 1.8 0 01-.576.237s.16-.161.491-.382c.205-.138.417-.265.636-.381.293-.177.624-.285.966-.314a2.98 2.98 0 011.203.272c.45.163.852.437 1.17.796a3.637 3.637 0 01.558 3.111 16.242 16.242 0 01-1.093 2.916c-.398.848-.78 1.619-1.093 2.263-.635 1.272-.974 2.085-1.033 2.068zm2.601-13.35c.209.018.411.082.593.187a6.558 6.558 0 011.474.847 8.166 8.166 0 013.033 4.688 8.25 8.25 0 01-.745 5.535 7.143 7.143 0 01-.966 1.407c-.271.297-.45.441-.466.424-.017-.017.559-.695 1.144-1.967a8.165 8.165 0 00-2.195-9.841c-1.067-.89-1.906-1.203-1.872-1.28zm-24.826-8.103a41.94 41.94 0 01-3.186 5.086 40.672 40.672 0 01-3.558 4.857c.935-1.772 2-3.472 3.186-5.086a41.563 41.563 0 013.558-4.857z" fill="#EB996E"/><path d="M146.986 363.217l-8.811-2-8.473-7.968a5.93 5.93 0 00-3.779-1.627l-15.395-.89a5.98 5.98 0 00-4.236 1.415l-11.015 9.324 48.015 23.42 6.592.585-2.898-22.259z" fill="#FFBE9D"/><path d="M120.882 359.106a29.002 29.002 0 01-2.966-.364 12.846 12.846 0 00-6.973.72 18.503 18.503 0 00-3.321 2.077c-.975.738-1.847 1.407-2.618 1.933-.607.417-1.245.788-1.907 1.11a2.53 2.53 0 01-.754.271c0-.067 1.009-.534 2.483-1.636.737-.551 1.584-1.246 2.542-2a16.73 16.73 0 013.389-2.153 9.971 9.971 0 013.931-.848 17.642 17.642 0 013.262.246 30.41 30.41 0 012.152.441c.268.033.53.101.78.203zm3.16 8.57c0 .076-.627-.204-1.694-.314a9.027 9.027 0 00-3.957.551 20.92 20.92 0 00-3.627 1.865c-.461.345-.965.63-1.499.848.391-.42.836-.788 1.321-1.094a15.955 15.955 0 013.652-2.017 8.086 8.086 0 014.152-.441 3.288 3.288 0 011.652.602zm19.818 1.424a49.226 49.226 0 01-2.982-3.958c-1.636-2.196-3.042-3.908-2.949-3.993a30.066 30.066 0 015.931 7.951z" fill="#EB996E"/><path d="M119.611 351.647l19.487-18.19a1.86 1.86 0 00.383-2.226 1.856 1.856 0 00-.518-.613 1.864 1.864 0 00-2.381.085l-22.877 20.538" fill="#E8505B"/><path d="M119.611 351.647l19.487-18.19a1.86 1.86 0 00.383-2.226 1.856 1.856 0 00-.518-.613 1.864 1.864 0 00-2.381.085l-22.877 20.538" fill="#000" opacity=".3"/><path d="M279.095 176.41c-.305-.119-12.125-3.221-11.413 8.73.711 11.952 12.565 8.773 12.573 8.477.009-.297-1.16-17.207-1.16-17.207z" fill="#FFBE9D"/><path d="M276.332 189.26c-.059 0-.203.161-.542.339a2.098 2.098 0 01-1.559.127c-1.288-.39-2.474-2.331-2.66-4.484a6.994 6.994 0 01.406-3.017 2.416 2.416 0 011.475-1.696 1.071 1.071 0 011.262.492c.178.331.119.568.178.585.059.017.246-.212.119-.704a1.32 1.32 0 00-.517-.72 1.576 1.576 0 00-1.169-.229 2.905 2.905 0 00-2.059 1.983 7.082 7.082 0 00-.526 3.391c.221 2.407 1.593 4.586 3.347 4.984a2.279 2.279 0 001.89-.432c.347-.297.398-.602.355-.619z" fill="#AA6550"/><path d="M308.936 133.698c6.075 0 12.26 0 19.86 3.967 4.795 2.543 7.786 6.476 10.277 11.273a25.922 25.922 0 012.83 12.621c-.22 4.128-.237 7.027-1.889 10.825" fill="#263238"/><path d="M306.504 134.63a32.18 32.18 0 0123.614 7.998 32.215 32.215 0 0110.828 22.466c.779 14.977 1.466 31.184 1.305 39.338-.356 17.512-17.887 20.089-17.887 20.089s.39 5.196.848 11.638a23.062 23.062 0 01-1.221 9.078 23.06 23.06 0 01-12.012 13.343 23.035 23.035 0 01-25.452-3.977 23.057 23.057 0 01-7.356-16.054l-2.602-70.573a32.218 32.218 0 018.223-22.755 32.195 32.195 0 0121.737-10.608l-.025.017z" fill="#FFBE9D"/><path d="M324.365 224.521s-10.761.559-22.453-6.917c0 0 5.295 12.715 22.766 11.299l-.313-4.382z" fill="#AA6550"/><path d="M334.236 174.833a2.547 2.547 0 01-2.424 2.543 2.383 2.383 0 01-2.314-1.363 2.391 2.391 0 01-.227-.917 2.49 2.49 0 012.423-2.543 2.368 2.368 0 011.752.603 2.38 2.38 0 01.79 1.677zm2.431-3.534c-.313.322-2.194-1.094-4.889-1.111-2.694-.017-4.668 1.314-4.956.983-.144-.144.178-.729 1.042-1.347a6.847 6.847 0 013.974-1.195 6.588 6.588 0 013.88 1.288c.822.644 1.102 1.237.949 1.382zm-28.807 3.534a2.546 2.546 0 01-2.432 2.543 2.396 2.396 0 01-2.542-2.28 2.544 2.544 0 012.432-2.543 2.368 2.368 0 011.752.603 2.38 2.38 0 01.79 1.677zm2.364-3.246c-.314.322-2.203-1.094-4.889-1.111-2.686-.017-4.669 1.323-4.965.983-.136-.144.178-.728 1.05-1.347a6.851 6.851 0 013.974-1.195 6.623 6.623 0 013.881 1.288c.83.644 1.101 1.238.949 1.382zm9.599 20.038c0-.153 1.695-.433 4.372-.755.686-.068 1.339-.195 1.457-.669a3.396 3.396 0 00-.44-2.035c-.627-1.695-1.296-3.39-1.991-5.255-2.762-7.468-4.753-13.613-4.448-13.723.305-.11 2.787 5.866 5.541 13.333.669 1.848 1.305 3.603 1.906 5.281a4 4 0 01.339 2.704 1.705 1.705 0 01-1.144.991 4.376 4.376 0 01-1.161.153c-2.728.127-4.422.127-4.431-.025zm-7.931 1.796c.441 0 .416 2.899 2.898 4.993 2.483 2.094 5.601 1.797 5.618 2.204 0 .186-.695.559-2.017.585a7.238 7.238 0 01-4.685-1.696 6.367 6.367 0 01-2.246-4.178c-.101-1.204.229-1.925.432-1.908zm-.889-32.37c-.28.729-2.957.356-6.117.712-3.161.356-5.719 1.195-6.135.534-.178-.314.272-1 1.305-1.696a10.244 10.244 0 014.55-1.534 10.373 10.373 0 014.779.602c1.152.449 1.728 1.034 1.618 1.382zm25.283.669c-.475.602-2.322 0-4.55-.093-2.229-.093-4.118.381-4.55-.263-.186-.313.11-.924.94-1.492a6.603 6.603 0 017.338.28c.779.61 1.034 1.272.822 1.568z" fill="#263238"/><path d="M276.748 173.477s.762 4.052.965 5.882c.077.662 0 8.087 1.788 8.477 1.551.313 4.626-1.094 5.999-4.162 1.373-3.069 3.982-10.434 3.694-13.783-.381-4.568-.593-9.205.322-13.697.915-4.493 3.059-8.875 6.66-11.697 3.601-2.823 8.811-3.815 12.912-1.755 2.542 1.263 4.415 3.509 6.779 5.086a10.521 10.521 0 007.218 1.882 6.782 6.782 0 005.584-4.578c.746-2.67-.627-5.602-2.771-7.374-2.143-1.771-4.897-2.543-7.625-3.119-7.549-1.5-15.556-1.204-22.724 1.585-7.168 2.789-13.557 8.146-16.607 15.206-3.542 8.171-3.135 13.172-2.194 22.038" fill="#263238"/><path d="M316.756 174.952a21.086 21.086 0 00-.449-2.882 11.867 11.867 0 00-4.338-6.451 11.64 11.64 0 00-4.94-2.178 11.797 11.797 0 00-6.151.526 11.063 11.063 0 00-2.949 1.593 11.297 11.297 0 00-2.474 2.484 11.668 11.668 0 000 13.807c.686.959 1.521 1.8 2.474 2.492a11.094 11.094 0 002.949 1.594 11.791 11.791 0 009.5-.649 11.813 11.813 0 005.929-7.454c.216-.949.366-1.912.449-2.882a.492.492 0 010 .195v.568c.004.307-.021.613-.076.915-.04.421-.114.837-.221 1.246a11.865 11.865 0 01-4.312 6.654 11.969 11.969 0 01-5.453 2.347 11.961 11.961 0 01-5.909-.559 12.214 12.214 0 01-5.635-4.238 12.065 12.065 0 010-14.325 11.353 11.353 0 012.542-2.542 11.183 11.183 0 013.067-1.636 12.01 12.01 0 0111.413 1.78 11.864 11.864 0 014.313 6.662c.106.406.179.82.22 1.238.055.304.08.614.076.923v.568a.505.505 0 01-.025.204zm30.815 0a22.271 22.271 0 00-.457-2.882 11.867 11.867 0 00-4.338-6.451 11.616 11.616 0 00-4.94-2.178 11.767 11.767 0 00-6.143.526 11.67 11.67 0 00-5.422 4.077 11.628 11.628 0 000 13.807 11.613 11.613 0 005.422 4.086 11.786 11.786 0 009.497-.65 11.792 11.792 0 005.924-7.453c.215-.95.368-1.913.457-2.882.004.065.004.13 0 .195v.568c.004.306-.019.612-.067.915-.044.421-.12.837-.229 1.246a11.789 11.789 0 01-4.313 6.654 11.97 11.97 0 01-11.413 1.788 11.444 11.444 0 01-3.067-1.644 11.275 11.275 0 01-2.542-2.543 12.032 12.032 0 010-14.325 11.996 11.996 0 0117.039-2.458 11.782 11.782 0 014.313 6.663c.108.406.184.819.229 1.237.048.306.07.615.067.924v.568a1.668 1.668 0 01-.017.212z" fill="#263238"/><path d="M324.06 173.68a6.41 6.41 0 01-1.102-.381 7.28 7.28 0 00-2.694-.339 7.07 7.07 0 00-2.627.695 7.43 7.43 0 01-1.033.526s.254-.399.847-.797a6.11 6.11 0 015.592-.373c.712.313 1.05.627 1.017.669zm4.77-29.539c.178-.907-.119-1.416.389-1.789.509-.373 1.695.687 2.085 1.128.135.144.542-.407.703-.517a3.11 3.11 0 00.305-1.162c-.076-.627-1.068-.805-1.534-1.229a4.734 4.734 0 00-1.652-.941 1.554 1.554 0 00-1.576.094 1.547 1.547 0 00-.356 1.186 3.4 3.4 0 00.238 1.229c.161.397.463.72.847.907" fill="#263238"/><path d="M276.095 164.153s8.583 3.145 13.048 5.035l-.254-4.391-12.481-4.941s-.322 3.263-.313 4.297zm.805-6.781a49.346 49.346 0 016.092 2.289 46.465 46.465 0 015.931 2.737 49.364 49.364 0 01-6.075-2.33 47.969 47.969 0 01-5.948-2.696z" fill="#F1F1F1"/><path d="M279.484 249.823l-.661-20.784s4.169 19.029 25.741 18.775c20.657-.238 20.275-16.758 20.275-16.758l.737 8.375v33.837l-13.471 55.189-17.209 2.187-19.013-75.439 3.601-5.382z" fill="#E8505B"/><path d="M322.916 243.169a2.142 2.142 0 01-.246.441c-.258.42-.541.825-.847 1.212a17.82 17.82 0 01-3.847 3.721 22.126 22.126 0 01-7.185 3.39 25.432 25.432 0 01-9.701.678 31.684 31.684 0 01-9.32-2.805 40.512 40.512 0 01-6.778-4.103 47.546 47.546 0 01-4.118-3.39c-.466-.424-.805-.78-1.042-1.009a1.782 1.782 0 01-.339-.381c.141.093.274.198.398.313l1.101.95c.949.847 2.356 1.983 4.186 3.288a42.23 42.23 0 006.778 3.984 31.859 31.859 0 009.193 2.738 25.31 25.31 0 009.532-.627 22.364 22.364 0 007.117-3.238 18.882 18.882 0 003.915-3.653c.788-.941 1.169-1.535 1.203-1.509z" fill="#263238"/><path d="M307.919 420.551l-.313-98.079-27.842-71.573-.932-21.547-16.946 12.833s-24.698 85.042-25.079 82.093c-.382-2.95 0 96.273 0 96.273h71.112z" fill="#F1F1F1"/><path d="M307.25 420.28c-.119 0-.221-22.098-.221-49.358 0-27.259.102-49.357.221-49.357.118 0 .22 22.089.22 49.357 0 27.269-.102 49.358-.22 49.358z" fill="#263238"/><path d="M262.115 256.197l3.44 2.61-2.415 15.859 40.636 42.585-36.908-48.484 3.143-12.57h-7.896z" fill="#A7A7A7"/><path d="M309.444 370.304l-62.368-18.292-2.068-47.391 17.107-62.436s-40.771 20.343-43.55 33.303c-2.78 12.961-9.465 44.433-10.168 67.183-.635 20.343-.728 33.947 3.915 40.44 13.302 18.597 100.945 21.92 135.954 0" fill="#F1F1F1"/><path d="M304.563 318.285a2.013 2.013 0 01-.203-.229c-.144-.178-.33-.407-.559-.703l-2.118-2.713c-1.847-2.39-4.482-5.815-7.727-10.036-6.508-8.476-15.463-20.241-25.36-33.201a129.463 129.463 0 00-1.906-2.501l-.068-.084v-.102c1.085-4.348 2.144-8.553 3.152-12.57l.203.262h-8.1v-14.274l.068-.042 12.26-9.324 3.39-2.543.847-.644c.098-.08.203-.151.313-.212-.086.089-.18.171-.279.246l-.848.687-3.312 2.602-12.167 9.434.067-.136v14.011l-.203-.203h8.269l-.067.263c-1 4.017-2.051 8.23-3.135 12.57l-.043-.186 1.915 2.542 25.249 33.278 7.626 10.121c.847 1.186 1.567 2.11 2.05 2.763l.526.729c.058.061.112.126.16.195z" fill="#263238"/><path d="M332.363 238.498c-4.973-8.705-7.558-7.798-7.558-7.798l.263 3.102v6.519l-2.364 27.971-15.107 60.766.314 91.544h57.115l7.109-111.692-.636-48.128-39.136-22.284z" fill="#F1F1F1"/><path d="M371.499 260.782s14.785 10.918 16.098 28.48c1.043 14.266 3.39 53.333 3.856 61.877.677 13.24-9.634 44.254-36.476 35.465-16.098-5.264-75.56-25.488-75.56-25.488l3.956-25.26 70.579 4.238 1.372-58.969 16.175-20.343z" fill="#F1F1F1"/><path d="M282.535 338.696s-19.979-2.162-24.572-1.043c-4.448 1.068-10.777 6.51-10.777 6.51l.093 7.9 32.138 8.985 3.118-22.352z" fill="#FFBE9D"/><path d="M307.605 319.921c.021-.094.052-.185.094-.271.076-.204.169-.458.296-.78.28-.712.687-1.695 1.195-2.992l4.474-10.952c1.906-4.628 4.168-10.12 6.676-16.223.636-1.517 1.263-3.102 2.051-4.654a97.324 97.324 0 012.541-4.645 102.595 102.595 0 016.338-9.154 94.995 94.995 0 013.516-4.323v.221l-2.491-6.332-.084-.212.211-.068 10.413-3.543-.101.288c-4.838-8.061-8.914-14.884-11.811-19.715-1.424-2.391-2.644-4.298-3.94-5.086a5.084 5.084 0 00-1.576-.636 5.312 5.312 0 01-.585-.144c.199.013.397.039.593.076.576.1 1.13.301 1.636.594a7.215 7.215 0 011.999 1.941 34.65 34.65 0 012.076 3.127c2.923 4.815 7.058 11.604 11.947 19.64l.127.212-.237.084-10.414 3.561.128-.28c.813 2.062 1.646 4.17 2.499 6.323l.051.127-.093.102a105.278 105.278 0 00-9.778 13.426c-.907 1.535-1.796 3.06-2.542 4.603-.745 1.543-1.406 3.102-2.042 4.628a6981.593 6981.593 0 01-6.778 16.181c-1.94 4.611-3.508 8.298-4.601 10.901-.542 1.262-.974 2.254-1.271 2.958-.144.313-.254.568-.347.763a1.39 1.39 0 01-.17.254zm71.977 61.707a1.905 1.905 0 01-.246.254l-.762.746a22.593 22.593 0 01-3.245 2.458 21.915 21.915 0 01-5.931 2.492 24.05 24.05 0 01-8.473.543 26.824 26.824 0 01-4.872-1.034c-1.695-.526-3.321-1.179-5.084-1.797a1181.147 1181.147 0 00-11.159-3.967 1400.434 1400.434 0 00-25.715-8.714c-18.301-6.018-34.992-11.087-47.091-14.698l-14.336-4.238-3.898-1.152-1.008-.314a1.684 1.684 0 01-.339-.119l.356.077 1.016.271 3.923 1.076c3.389.95 8.312 2.348 14.404 4.111 12.116 3.535 28.808 8.561 47.134 14.579 9.16 3.001 17.844 5.934 25.715 8.748 3.932 1.39 7.626 2.721 11.151 4.009 1.745.619 3.389 1.28 5.083 1.814 1.568.489 3.175.838 4.804 1.043 2.808.34 5.653.182 8.405-.467a22.574 22.574 0 005.931-2.398 24.802 24.802 0 003.271-2.382l.788-.704c.051-.085.11-.165.178-.237zm-132.337-29.421c0 .093-1.127-.153-2.915-.085a13.66 13.66 0 00-3.084.509 14.335 14.335 0 00-3.474 1.585 16.339 16.339 0 00-4.838 4.967c-.94 1.526-1.355 2.543-1.432 2.543.047-.261.127-.514.238-.755.258-.673.569-1.325.932-1.949a15.125 15.125 0 014.863-5.171 13.718 13.718 0 013.601-1.61 12.418 12.418 0 013.186-.424c.722-.012 1.443.051 2.152.186.266.029.526.098.771.204zm-19.648-6.196s0-.085.076-.221c.101-.205.232-.393.39-.559a3.995 3.995 0 012.22-1.093c1.211-.2 2.448-.2 3.66 0 1.482.196 2.938.548 4.346 1.051a18.965 18.965 0 016.889 4.238 14.368 14.368 0 011.601 1.873c.186.237.343.496.466.771-.076.051-.771-1.034-2.279-2.415a20.318 20.318 0 00-6.829-4.035 22.254 22.254 0 00-4.237-1.068 11.871 11.871 0 00-3.55-.102 4.048 4.048 0 00-2.152.916c-.423.373-.567.669-.601.644zm23.283-54.426a6.932 6.932 0 01-.288-1.288c-.127-.399-.305-.848-.5-1.45s-.534-1.161-.923-1.814a26.729 26.729 0 00-3.178-4.238 34.003 34.003 0 00-4.872-4.238 29.333 29.333 0 00-10.658-4.933 21.994 21.994 0 00-3.551-.449 7.23 7.23 0 01-1.313-.111c.438-.055.88-.075 1.322-.059a18.504 18.504 0 013.601.314c3.919.82 7.617 2.47 10.845 4.84a32.51 32.51 0 014.914 4.373 24.017 24.017 0 013.152 4.349c.381.669.627 1.322.847 1.873.221.551.339 1.093.441 1.509.087.436.14.878.161 1.322zm118.407 72.463a1.414 1.414 0 010-.305v-.848c0-.779-.059-1.924-.169-3.39a47.444 47.444 0 00-2.542-12.214 17.132 17.132 0 00-1.694-3.738 7.294 7.294 0 00-3.305-2.797c-2.838-1.23-6.253-1.069-9.727-1.263l-22.741-.958c-18.792-.848-35.509-1.518-46.016-2.085l.145-.111c-.636 3.857-1.144 6.925-1.492 9.045-.178 1.025-.313 1.83-.415 2.398-.042.255-.085.458-.11.619a1.402 1.402 0 01-.051.203 1.063 1.063 0 010-.211l.085-.619c.076-.577.195-1.373.339-2.407.322-2.128.779-5.196 1.364-9.07v-.119h.127l46.016 1.907 22.741.992c1.745.093 3.448.127 5.084.263a15.18 15.18 0 014.744 1.068 7.682 7.682 0 013.44 2.95 17.615 17.615 0 011.695 3.814 45.805 45.805 0 012.381 12.308c.093 1.483.093 2.636.084 3.39v.89c0 .229.017.288.017.288z" fill="#263238"/><path d="M355.858 308.766c.119 0 .22 6.841.22 15.257 0 8.417-.101 15.258-.22 15.258s-.22-6.841-.22-15.258c0-8.416.067-15.257.22-15.257zm-136.802-34.803s-.051.186-.169.559c-.119.373-.331.916-.509 1.653-.415 1.466-.94 3.662-1.525 6.518-1.178 5.713-2.626 14.071-4.236 24.53-.805 5.23-1.695 11.02-2.542 17.216-.432 3.102-.703 6.348-.924 9.696-.22 3.349-.398 6.781-.533 10.384-.255 7.12-.407 14.655-.204 22.496.068 1.958.136 3.941.297 5.933.051 1.009.22 1.984.339 2.984.181.988.421 1.965.72 2.924a16.53 16.53 0 002.813 5.366 12.03 12.03 0 004.812 3.712 73.721 73.721 0 0012.566 4.798c4.38 1.314 8.904 2.373 13.497 3.322a186.442 186.442 0 0030.332 3.696c4.83.117 9.663-.01 14.481-.381 4.719-.322 9.32-.848 13.768-1.484a144.798 144.798 0 0024.74-5.721 126.587 126.587 0 0019.979-8.578v.271l-27.409-9.705-7.38-2.636-1.906-.695c-.433-.153-.644-.246-.644-.246l.652.212 1.923.652 7.406 2.543 27.452 9.578.33.111-.305.161a126.184 126.184 0 01-20.004 8.654 145.408 145.408 0 01-24.766 5.806 183.702 183.702 0 01-13.794 1.5c-4.831.375-9.678.505-14.523.39a186.342 186.342 0 01-30.408-3.695c-4.61-.95-9.143-2.009-13.557-3.331a73.628 73.628 0 01-12.641-4.84 12.547 12.547 0 01-5.016-3.857 16.953 16.953 0 01-2.873-5.51 24.461 24.461 0 01-.737-2.983c-.127-1.009-.288-2.018-.339-3.018-.161-2-.228-3.984-.288-5.933-.195-7.858 0-15.393.237-22.522.136-3.565.32-7.029.551-10.391.229-3.391.509-6.603.949-9.723.847-6.221 1.746-11.977 2.542-17.206 1.695-10.46 3.169-18.818 4.397-24.522.61-2.848 1.153-5.044 1.593-6.501.187-.746.424-1.28.543-1.653.118-.373.313-.534.313-.534z" fill="#263238"/><path d="M247.152 346.392c10.43-11.553 9.972-32.091 3.982-46.67-.551 15.791-2.415 29.794-3.838 45.136" fill="#A7A7A7"/><path d="M251.16 302.638c.016.169.016.339 0 .509 0 .372-.06.847-.102 1.44-.102 1.306-.237 3.103-.415 5.298-.373 4.518-.847 10.672-1.432 17.47l-1.373 17.469c-.161 2.196-.296 3.992-.398 5.298l-.127 1.441c-.01.168-.033.335-.068.5a1.886 1.886 0 010-.509v-1.441c.043-1.254.136-3.068.255-5.306.262-4.484.686-10.663 1.245-17.495a984.834 984.834 0 011.568-17.461l.55-5.28c.076-.585.136-1.06.178-1.433.016-.171.056-.34.119-.5zm25.706-20.869c.224 2.978.297 5.966.221 8.951a89.28 89.28 0 01-.221 8.96c-.118 0-.22-4.01-.22-8.96 0-4.95.102-8.951.22-8.951z" fill="#263238"/><path d="M270.071 311.53a9.202 9.202 0 001.923 4.746c.983 1.272 2.974 2.543 4.575 2.433a6.981 6.981 0 006.16-3.094c1.949-3.111 2.432-9.578.847-13.401-1.076-2.627-3.49-5.086-6.329-5.136-3.728-.094-6.066 2.602-6.863 5.331" fill="#A7A7A7"/><path d="M270.401 302.409a5.766 5.766 0 01.729-1.788 7.483 7.483 0 011.406-1.831 6.503 6.503 0 014.406-1.831 5.316 5.316 0 011.94.254 7.618 7.618 0 013.457 2.484 9.999 9.999 0 012.042 4.238c.352 1.648.477 3.336.373 5.018-.17 2.661-.695 5.297-2.161 7.315a6.624 6.624 0 01-2.813 2.127 7.673 7.673 0 01-3.185.534 4.772 4.772 0 01-2.28-.568 7.619 7.619 0 01-1.694-1.195 8.606 8.606 0 01-1.864-2.788 7.803 7.803 0 01-.593-2.06 4.365 4.365 0 01-.051-.56v-.186c.173.937.457 1.851.847 2.721a8.61 8.61 0 001.881 2.653 6.942 6.942 0 001.695 1.119 4.492 4.492 0 002.118.5 6.785 6.785 0 005.634-2.543c1.364-1.89 1.89-4.484 2.051-7.078.186-3.39-.382-6.738-2.288-8.985a7.27 7.27 0 00-3.254-2.39 4.88 4.88 0 00-1.821-.263 6.302 6.302 0 00-4.237 1.696 8.075 8.075 0 00-1.415 1.737 16.967 16.967 0 00-.923 1.67z" fill="#263238"/><path d="M268.088 311.691a9.208 9.208 0 001.924 4.755c.974 1.271 2.974 2.543 4.575 2.424a6.97 6.97 0 006.16-3.085c1.949-3.111 2.431-9.579.847-13.401-1.076-2.628-3.491-5.086-6.329-5.137-3.728-.093-6.067 2.602-6.863 5.332" fill="#A7A7A7"/><path d="M268.419 302.579a5.778 5.778 0 01.686-1.831 7.675 7.675 0 011.398-1.831 6.451 6.451 0 012.644-1.551 6.6 6.6 0 011.77-.28 5.193 5.193 0 011.941.254 7.629 7.629 0 013.457 2.484 9.885 9.885 0 012.033 4.238 18.19 18.19 0 01.381 5.018c-.169 2.653-.694 5.297-2.16 7.315a6.546 6.546 0 01-2.813 2.119 7.698 7.698 0 01-3.186.542 4.734 4.734 0 01-2.279-.568 7.602 7.602 0 01-1.695-1.195 8.569 8.569 0 01-1.864-2.788 7.83 7.83 0 01-.593-2.06 4.756 4.756 0 01-.051-.56.574.574 0 010-.194c.172.94.456 1.857.848 2.729a8.477 8.477 0 001.881 2.653 6.956 6.956 0 001.694 1.119 4.497 4.497 0 002.118.5 6.783 6.783 0 005.626-2.543c1.373-1.89 1.898-4.484 2.059-7.086.187-3.348-.381-6.73-2.287-8.976a7.265 7.265 0 00-3.262-2.391 4.863 4.863 0 00-1.814-.263 6.304 6.304 0 00-4.236 1.696 8.075 8.075 0 00-1.415 1.737c-.33.552-.625 1.123-.881 1.713z" fill="#263238"/><path d="M271.689 301.621a4.363 4.363 0 00-4.55 2.627 7.506 7.506 0 000 5.527 6.779 6.779 0 001.415 2.492 3.653 3.653 0 002.542 1.229 4.403 4.403 0 003.499-2.068 7.891 7.891 0 001.195-6.501c-.39-1.467-1.474-2.976-2.991-3.009" fill="#A7A7A7"/><path d="M272.825 301.917h.338c.326.042.64.149.924.314a4.536 4.536 0 011.932 2.916 7.982 7.982 0 01-.517 5.187 6.722 6.722 0 01-1.906 2.501 3.68 3.68 0 01-1.541.787 3.68 3.68 0 01-1.73-.007 4.522 4.522 0 01-2.61-2.136 9.539 9.539 0 01-1.084-2.925 6.511 6.511 0 01.847-5.085 4.56 4.56 0 012.949-1.882 3.06 3.06 0 01.974 0c.111.015.219.043.322.085a6.353 6.353 0 00-1.262.084 4.464 4.464 0 00-2.729 1.891 6.246 6.246 0 00-.703 4.857 9.147 9.147 0 001.059 2.788 4.15 4.15 0 002.356 1.933 3.274 3.274 0 001.528.001 3.27 3.27 0 001.361-.696 6.429 6.429 0 001.796-2.331 7.753 7.753 0 00.585-4.942 4.47 4.47 0 00-1.695-2.848 3.39 3.39 0 00-1.194-.492z" fill="#263238"/><path d="M275.959 315.556c-.067 0-.161-.263-.449-.602a3.089 3.089 0 00-1.448-.932 7.608 7.608 0 00-1.78-.272c-.466-.042-.771-.076-.771-.135 0-.06.288-.136.771-.178a5.073 5.073 0 011.915.161c.644.192 1.2.607 1.568 1.169.262.45.245.789.194.789zm.67-15.088c0 .042-.136.305-.525.619a4.29 4.29 0 01-1.788.78 4.085 4.085 0 01-1.949-.111c-.474-.152-.729-.339-.703-.39a6.31 6.31 0 004.965-.898zm58.217-60.715c.097.02.191.054.279.101.178.085.432.204.754.39a15.524 15.524 0 012.542 1.823 18.1 18.1 0 015.457 8.629 55.149 55.149 0 012.067 10.086 62.73 62.73 0 01.28 3.094c.042.38.042.764 0 1.144a6.405 6.405 0 01-.187-1.127c-.11-.848-.254-1.848-.415-3.077a64.953 64.953 0 00-2.194-9.959 18.73 18.73 0 00-5.237-8.528 29.287 29.287 0 00-3.346-2.576zm-10.557 93.306c2.457-.093 4.422-2.543 6.88-2.416a3.394 3.394 0 012.312 1.197 3.417 3.417 0 01.789 2.482 3.399 3.399 0 01-1.197 2.313 3.406 3.406 0 01-2.481.789c-2.584-.296-4.092-3.322-6.617-3.907" fill="#263238"/><path d="M345.115 335.153a14.71 14.71 0 01-2.296-.195l.135-.848c3.033.492 5.584 0 7.575-1.475 2.542-1.848 4.126-5.145 4.804-9.807v-.178c.28-1.848.661-38.1.661-44.983 0-10.748-9.43-12.214-9.837-12.274-.407-.059-8.956-1.5-13.506 10.24-4.753 12.273-12.378 36.007-12.853 38.778-.059.339-.161.763-.263 1.255-.796 3.551-2.44 10.951 2.491 15.215 5.499 4.746 9.837 2.915 10.015 2.831l.348.771c-.204.093-4.982 2.161-10.913-2.958-5.321-4.594-3.601-12.333-2.771-16.046.11-.474.195-.847.254-1.22.509-2.797 8.151-26.59 12.93-38.923 4.778-12.333 14.336-10.79 14.404-10.773.067.016 10.54 1.618 10.54 13.112 0 5.671-.373 43.153-.67 45.111v.178c-.711 4.891-2.44 8.383-5.143 10.358a9.702 9.702 0 01-5.905 1.831z" fill="#263238"/><path d="M356.443 284.609a15.779 15.779 0 00-1.762-4.238 14.294 14.294 0 00-3.347-3.628 14.582 14.582 0 00-5.448-2.543 15.903 15.903 0 00-10.718 1.407 19.15 19.15 0 00-3.737 2.67c.052-.097.118-.185.195-.263.198-.238.41-.465.635-.678.824-.79 1.75-1.466 2.754-2.009a15.544 15.544 0 014.779-1.695c2.051-.384 4.16-.34 6.193.127a14.393 14.393 0 015.593 2.679 13.94 13.94 0 013.389 3.789 11.273 11.273 0 011.313 3.153c.073.299.13.601.169.907 0 .229.009.322-.008.322zm21.58 67.767a29.633 29.633 0 00-1.169-3.619 15.773 15.773 0 00-5.745-6.9 12.468 12.468 0 00-4.66-1.695 40.14 40.14 0 00-4.109-.424l-2.788-.195a3.883 3.883 0 01-1.016-.144 5.484 5.484 0 011.025 0l2.796.051c1.389.032 2.775.142 4.152.331a12.46 12.46 0 014.838 1.695 15.44 15.44 0 015.803 7.154c.348.876.607 1.784.771 2.712.081.339.115.687.102 1.034z" fill="#263238"/><path d="M335.278 338.23s8.337-12.63 10.464-14.283c2.126-1.653 20.335-9.866 22.444-8.544 2.11 1.322.848 4.187.848 4.187s7.693-2.704 8.515-1.636a3.8 3.8 0 010 4.34s4.236-.652 4.236.653a5.398 5.398 0 01-2.457 4.425c-1.966 1.474-14.751 9.993-15.776 12.341l-4.144-.246-24.13-1.237z" fill="#FFBE9D"/><path d="M359.248 334.619c.09-.282.218-.55.381-.797.405-.693.864-1.354 1.372-1.975a22.863 22.863 0 016.042-5.086 44.964 44.964 0 017.151-3.39 51.62 51.62 0 012.245-.806c.272-.112.556-.192.847-.237a3.67 3.67 0 01-.788.399l-2.194.932a59.31 59.31 0 00-7.033 3.45 25.255 25.255 0 00-6.032 4.916c-1.314 1.534-1.907 2.636-1.991 2.594zm-10.558-.204c.1-.325.236-.638.407-.932.288-.585.703-1.424 1.28-2.441a23.212 23.212 0 012.296-3.391c.514-.63 1.1-1.199 1.745-1.695a38.96 38.96 0 012.211-1.373 60.419 60.419 0 018.134-4.06 22.506 22.506 0 012.618-.848c.322-.1.655-.159.992-.178 0 .068-1.381.398-3.491 1.339a78.395 78.395 0 00-8.032 4.154c-.763.449-1.5.89-2.186 1.347a10.624 10.624 0 00-1.695 1.636 24.706 24.706 0 00-2.338 3.298l-1.407 2.364a4.827 4.827 0 01-.534.78z" fill="#AA6550"/><path d="M571 420.78c0 .118-127.829.22-285.483.22S0 420.898 0 420.78c0-.119 127.804-.221 285.534-.221S571 420.653 571 420.78z" fill="#263238"/></g><defs><clipPath id="clip0_0_120"><path fill="#fff" transform="translate(0 76)" d="M0 0h571v345H0z"/></clipPath></defs></svg>